<?xml version="1.0" encoding="UTF-8"?><svg id="Layer_1" xmlns="http://www.w3.org/2000/svg" xmlns:xlink="http://www.w3.org/1999/xlink" viewBox="0 0 73.26 89.54"><defs><style>.cls-1{fill:url(#linear-gradient-6);}.cls-2{fill:url(#linear-gradient-4);stroke:url(#linear-gradient-5);stroke-width:1.1px;}.cls-2,.cls-3,.cls-4,.cls-5{stroke-linecap:round;stroke-linejoin:round;}.cls-3{fill:url(#linear-gradient-8);stroke:url(#linear-gradient-9);stroke-width:.26px;}.cls-4{stroke:url(#linear-gradient-2);}.cls-4,.cls-5{fill:none;stroke-width:4.46px;}.cls-6{fill:url(#linear-gradient-7);}.cls-7{fill:url(#linear-gradient);}.cls-5{stroke:url(#linear-gradient-3);}</style><linearGradient id="linear-gradient" x1="36.63" y1="49.81" x2="36.63" y2="1.55" gradientTransform="matrix(1, 0, 0, 1, 0, 0)" gradientUnits="userSpaceOnUse"><stop offset="0" stop-color="#646464"/><stop offset="1" stop-color="#a8a8a8"/></linearGradient><linearGradient id="linear-gradient-2" x1="125.19" y1="78.27" x2="125.19" y2="54.55" gradientTransform="translate(-50.92) skewX(-11.22)" gradientUnits="userSpaceOnUse"><stop offset="0" stop-color="#459cdb"/><stop offset=".99" stop-color="#005a8b"/></linearGradient><linearGradient id="linear-gradient-3" x1="112.96" y1="90.04" x2="112.96" xlink:href="#linear-gradient-2"/><linearGradient id="linear-gradient-4" x1="9.1" y1="64.8" x2="24.65" y2="64.8" gradientTransform="matrix(1, 0, 0, 1, 0, 0)" gradientUnits="userSpaceOnUse"><stop offset="0" stop-color="#a1d8ff"/><stop offset="1" stop-color="#59beff"/></linearGradient><linearGradient id="linear-gradient-5" x1="8.55" x2="25.2" xlink:href="#linear-gradient-4"/><linearGradient id="linear-gradient-6" x1="30.12" y1="58.7" x2="36.26" y2="58.7" xlink:href="#linear-gradient-4"/><linearGradient id="linear-gradient-7" x1="17.66" y1="80.63" x2="22.04" y2="80.63" xlink:href="#linear-gradient-4"/><linearGradient id="linear-gradient-8" x1="26.7" y1="77.93" x2="40.34" y2="77.93" xlink:href="#linear-gradient-4"/><linearGradient id="linear-gradient-9" x1="26.57" y1="77.93" x2="40.47" y2="77.93" xlink:href="#linear-gradient-4"/></defs><path class="cls-7" d="M62.3,16.61C59.74,7.32,51.23,.49,41.12,.49S23.21,6.76,20.28,15.45c-.83-.12-1.68-.18-2.55-.18C7.94,15.27,0,23.21,0,33.01s7.94,17.74,17.74,17.74H55.53c9.79,0,17.74-7.94,17.74-17.74,0-7.39-4.52-13.73-10.96-16.39"/><g><line class="cls-4" x1="63.01" y1="56.78" x2="59.19" y2="76.04"/><line class="cls-5" x1="50.77" y1="56.78" x2="44.62" y2="87.81"/><path class="cls-2" d="M24.3,64.47h-2.41l1.36-1.36c.14-.14,.14-.36,0-.5-.07-.07-.16-.1-.25-.1s-.18,.03-.25,.1l-1.85,1.86h-3.37l1.81-2.76,2.67-.56c.19-.04,.31-.23,.27-.42-.04-.19-.23-.31-.42-.27l-1.98,.41,1.36-2.08c.11-.16,.06-.38-.1-.49-.06-.04-.13-.06-.19-.06-.12,0-.23,.06-.3,.16l-1.32,2.02-.39-1.88c-.04-.17-.18-.28-.35-.28-.02,0-.05,0-.07,0-.19,.04-.31,.23-.27,.42l.54,2.57-1.87,2.86-1.62-2.95,.76-2.62c.05-.19-.05-.38-.24-.44-.03,0-.07-.01-.1-.01-.15,0-.29,.1-.34,.25l-.57,1.94-1.2-2.18c-.06-.12-.18-.18-.31-.18-.06,0-.12,.01-.17,.04-.17,.09-.23,.31-.14,.48l1.16,2.11-1.84-.54c-.19-.05-.38,.05-.44,.24-.05,.19,.05,.38,.24,.44l2.52,.73,1.66,3.02h-3.43l-1.86-1.86c-.07-.07-.16-.1-.25-.1s-.18,.03-.25,.1c-.14,.14-.14,.36,0,.5l1.36,1.36h-2.41c-.19,0-.35,.16-.35,.35s.16,.35,.35,.35h2.49l-1.43,1.43c-.14,.14-.14,.36,0,.5,.14,.14,.36,.14,.5,0l1.93-1.93h3.28l-1.83,2.8-2.57,.54c-.19,.04-.31,.23-.27,.42,.04,.19,.23,.31,.42,.27l1.88-.39-1.32,2.02c-.11,.16-.06,.38,.1,.49,.16,.11,.38,.06,.49-.1l1.36-2.08,.41,1.98c.04,.19,.23,.31,.42,.27s.31-.23,.27-.42l-.56-2.67,1.84-2.81,1.64,2.99-.73,2.52c-.05,.19,.05,.38,.24,.44,.19,.05,.38-.05,.44-.24l.54-1.84,1.16,2.11c.09,.17,.31,.23,.48,.14,.17-.09,.23-.31,.14-.48l-1.2-2.18,1.94,.56c.19,.05,.38-.05,.44-.24,.05-.19-.05-.38-.24-.44l-2.62-.76-1.59-2.9h3.33l1.93,1.93c.14,.14,.36,.14,.5,0,.14-.14,.14-.36,0-.5l-1.43-1.43h2.48c.19,0,.35-.16,.35-.35s-.16-.35-.35-.35Z"/><circle class="cls-1" cx="33.19" cy="58.7" r="3.07"/><circle class="cls-6" cx="19.85" cy="80.63" r="2.19"/><path class="cls-3" d="M27.01,78.18h1.64l-.82,.82s-.05,.07-.07,.1c-.04,.04-.06,.09-.08,.14-.04,.17,.06,.33,.23,.37,.01,0,.15,.04,.34,.14,.14,.08,.3,.19,.45,.36,.03,.04,.06,.07,.09,.11,.06,.08,.11,.16,.16,.26,.17,.34,.24,.66,.26,.9,.03,.27,0,.44,0,.45-.03,.17,.07,.33,.24,.36,.05,.01,.11,0,.15,0h.02l1.14-.29-.85,1.42c-.09,.15-.04,.34,.11,.42,.15,.09,.34,.04,.42-.11l.84-1.4,.28,1.13s.03,.07,.05,.1c.01,.04,.04,.08,.07,.11,.12,.12,.32,.12,.44,0,0,0,.11-.1,.3-.21,.13-.07,.29-.14,.49-.18,.08-.02,.17-.03,.26-.03,.08,0,.16,0,.24,0,.38,.03,.69,.14,.9,.25,.24,.12,.37,.23,.38,.24,.12,.12,.32,.11,.44-.01,.01-.02,.03-.03,.04-.05,.03-.03,.05-.07,.06-.11l.35-1.13,.78,1.45c.08,.15,.27,.21,.42,.13,.15-.08,.21-.27,.13-.42l-.77-1.44,1.11,.34c.16,.05,.32-.04,.38-.19,.05-.07,.07-.17,.05-.26,0,0-.04-.14-.04-.36,0-.11,0-.23,.03-.37,.03-.16,.08-.32,.16-.5,.04-.08,.08-.16,.14-.24,.05-.07,.1-.14,.15-.2,.11-.13,.22-.25,.33-.34,.1-.09,.19-.15,.28-.21,.22-.14,.37-.19,.38-.19,.05-.02,.1-.04,.13-.08,.02-.01,.04-.03,.05-.04,.12-.12,.12-.32,0-.44l-.84-.84h1.6c.17,0,.31-.14,.31-.31,0-.17-.14-.31-.31-.31h-1.58l.82-.82s.03-.03,.04-.04c.03-.04,.06-.08,.07-.13,.04-.17-.06-.33-.22-.38,0,0-.14-.04-.33-.15-.13-.08-.27-.19-.41-.35-.04-.05-.09-.11-.13-.17-.05-.07-.09-.15-.13-.23-.16-.34-.23-.66-.25-.9-.03-.28,0-.46,0-.47,.03-.17-.07-.33-.24-.36-.02,0-.04,0-.06,0-.04,0-.07,0-.11,.02-.02,0-.03,0-.05,0l-1.15,.29,.82-1.38c.09-.15,.04-.34-.11-.42-.05-.03-.1-.04-.16-.04-.1,0-.21,.05-.27,.15l-.81,1.36-.28-1.12c-.01-.05-.04-.1-.07-.14-.02-.04-.04-.07-.07-.1-.06-.06-.14-.09-.21-.09-.08,0-.16,.03-.22,.1,0,0-.11,.11-.29,.22-.12,.07-.29,.15-.48,.19-.07,.02-.14,.03-.21,.04-.09,0-.19,.01-.29,0-.07,0-.14-.01-.21-.02-.08-.01-.16-.03-.24-.04-.17-.04-.32-.1-.44-.15-.24-.11-.37-.22-.38-.23-.05-.04-.11-.07-.17-.07-.02,0-.04,0-.06,0-.13,0-.26,.09-.3,.22l-.34,1.13-.76-1.41c-.06-.1-.16-.16-.27-.16-.05,0-.1,.01-.15,.04-.15,.08-.21,.27-.13,.42l.75,1.4-1.11-.34c-.09-.03-.18-.01-.25,.03-.14,.06-.22,.21-.18,.36,0,.01,.04,.15,.04,.36,0,.12-.01,.27-.05,.44-.03,.12-.08,.26-.14,.39-.04,.08-.09,.17-.15,.25-.06,.09-.12,.17-.19,.24-.08,.1-.17,.18-.25,.26-.11,.1-.22,.19-.32,.26-.23,.16-.4,.22-.41,.22-.16,.05-.25,.23-.2,.39,0,.03,.02,.05,.04,.07,.01,.02,.03,.05,.05,.07l.83,.83h-1.65c-.17,0-.31,.14-.31,.31,0,.17,.14,.31,.31,.31Zm2.51,0h.83l-1.37,1.36c-.17-.15-.33-.26-.48-.34l1.02-1.02Zm.09-2.6c.07-.11,.14-.21,.19-.32l2.35,.71,.15,.28c-.39,.32-.67,.78-.74,1.3h-.37l-1.75-1.75c.06-.07,.11-.14,.17-.22Zm3.99-2.34c.09,0,.17,0,.25,0l.62,2.45-.16,.26c-.23-.1-.49-.15-.76-.15-.25,0-.49,.05-.71,.13l-.12-.22,.75-2.49s.09,0,.13,.01Zm3.98,2.29c.04,.07,.07,.14,.11,.21l-1.8,1.8h-.36c-.07-.5-.32-.95-.7-1.27l.13-.22,2.55-.64s.03,.08,.05,.12Zm-.15,4.61c-.08,.12-.15,.24-.21,.36l-2.33-.71-.19-.35c.42-.3,.72-.75,.81-1.28h.32l1.76,1.75c-.06,.07-.12,.15-.17,.23Zm-3.97,2.4c-.07,0-.14,0-.21,0h-.02l-.62-2.51,.21-.35c.23,.09,.48,.14,.74,.14,.21,0,.42-.03,.61-.09l.21,.39-.75,2.45c-.05,0-.1-.01-.16-.02Zm-3.97-2.32c-.04-.07-.07-.14-.12-.2l1.85-1.84h.35c.09,.48,.34,.89,.7,1.19l-.22,.37-2.5,.62s-.04-.09-.06-.13Zm5.44-2.41c0,.12-.02,.24-.05,.35-.08,.29-.24,.54-.47,.73-.16,.13-.35,.22-.56,.27-.1,.02-.2,.04-.31,.04-.14,0-.28-.02-.42-.06-.2-.06-.38-.17-.53-.31-.19-.17-.32-.4-.39-.65-.03-.11-.05-.23-.05-.36,0-.09,0-.18,.03-.26,.06-.29,.2-.55,.41-.74,.15-.14,.33-.25,.53-.32,.13-.04,.27-.06,.42-.06,.15,0,.3,.03,.44,.07,.2,.07,.38,.18,.53,.32,.2,.19,.34,.44,.39,.73,.02,.09,.03,.17,.03,.27Zm-5.1,3.69c0-.16-.03-.35-.08-.56l1.85-.46-.4,.68-1.37,.34Zm2.32-.73l.46,1.85c-.22,.06-.4,.15-.54,.23l-.34-1.37,.42-.71Zm2.58,2.16c-.14-.08-.31-.16-.51-.23l.56-1.82,.37,.7-.42,1.36Zm.96-1.64l-.39-.73,1.73,.53c-.04,.23-.05,.43-.04,.6l-1.3-.4Zm2.82-2.16c-.14,.08-.31,.19-.49,.34l-1.31-1.31h.82l.98,.97Zm-.96-1.59h-.79l1.31-1.31c.15,.15,.31,.26,.45,.34l-.97,.97Zm-.3-3.3c0,.16,.02,.36,.07,.58l-1.91,.48,.42-.71,1.42-.36Zm-2.34,.7l-.46-1.82c.2-.07,.38-.16,.52-.24l.35,1.38-.41,.68Zm-2.6-2.06c.14,.08,.32,.16,.54,.22l-.56,1.84-.39-.73,.41-1.34Zm-.96,1.61l.37,.7-1.73-.52c.05-.21,.06-.4,.06-.57l1.29,.39Zm-2.81,2.08c.13-.08,.29-.19,.46-.33l1.31,1.31h-.79l-.98-.98Z"/></g></svg>