<?xml version="1.0" encoding="UTF-8"?><svg id="Layer_1" xmlns="http://www.w3.org/2000/svg" xmlns:xlink="http://www.w3.org/1999/xlink" viewBox="0 0 69.26 59.01"><defs><style>.cls-1{fill:url(#linear-gradient-2);}.cls-2{fill:url(#linear-gradient-3);}.cls-3{fill:url(#linear-gradient);}</style><linearGradient id="linear-gradient" x1="34.63" y1="59.34" x2="34.63" y2="1.28" gradientTransform="matrix(1, 0, 0, 1, 0, 0)" gradientUnits="userSpaceOnUse"><stop offset="0" stop-color="#9a9a9a"/><stop offset="1" stop-color="#d8d8d8"/></linearGradient><linearGradient id="linear-gradient-2" x1="34.63" y1="59.34" x2="34.63" y2="1.28" xlink:href="#linear-gradient"/><linearGradient id="linear-gradient-3" x1="34.63" y1="59.34" x2="34.63" y2="1.28" xlink:href="#linear-gradient"/></defs><path class="cls-3" d="M4.47,8.94h60.32c2.47,0,4.47-2,4.47-4.47s-2-4.47-4.47-4.47H4.47C2,0,0,2,0,4.47s2,4.47,4.47,4.47Z"/><path class="cls-1" d="M64.79,25.03H4.47c-2.47,0-4.47,2-4.47,4.47s2,4.47,4.47,4.47h60.32c2.47,0,4.47-2,4.47-4.47s-2-4.47-4.47-4.47Z"/><path class="cls-2" d="M64.79,50.07H4.47c-2.47,0-4.47,2-4.47,4.47s2,4.47,4.47,4.47h60.32c2.47,0,4.47-2,4.47-4.47s-2-4.47-4.47-4.47Z"/></svg>