<?xml version="1.0" encoding="UTF-8"?><svg id="Layer_1" xmlns="http://www.w3.org/2000/svg" xmlns:xlink="http://www.w3.org/1999/xlink" viewBox="0 0 73.26 89.91"><defs><style>.cls-1{stroke:url(#linear-gradient-5);}.cls-1,.cls-2,.cls-3,.cls-4,.cls-5{fill:none;stroke-linecap:round;stroke-linejoin:round;stroke-width:4.46px;}.cls-2{stroke:url(#linear-gradient-4);}.cls-3{stroke:url(#linear-gradient-2);}.cls-4{stroke:url(#linear-gradient-6);}.cls-6{fill:url(#linear-gradient);}.cls-5{stroke:url(#linear-gradient-3);}</style><linearGradient id="linear-gradient" x1="36.63" y1="49.5" x2="36.63" y2="1.24" gradientTransform="matrix(1, 0, 0, 1, 0, 0)" gradientUnits="userSpaceOnUse"><stop offset="0" stop-color="#646464"/><stop offset="1" stop-color="#a8a8a8"/></linearGradient><linearGradient id="linear-gradient-2" x1="62.42" y1="77.96" x2="62.42" y2="54.24" gradientTransform="translate(11.79) skewX(-11.22)" gradientUnits="userSpaceOnUse"><stop offset="0" stop-color="#459cdb"/><stop offset=".99" stop-color="#005a8b"/></linearGradient><linearGradient id="linear-gradient-3" x1="50.18" y1="89.73" x2="50.18" xlink:href="#linear-gradient-2"/><linearGradient id="linear-gradient-4" x1="37.95" x2="37.95" xlink:href="#linear-gradient-2"/><linearGradient id="linear-gradient-5" x1="25.72" y1="89.73" x2="25.72" xlink:href="#linear-gradient-2"/><linearGradient id="linear-gradient-6" x1="13.48" x2="13.48" xlink:href="#linear-gradient-2"/></defs><path class="cls-6" d="M62.3,16.3C59.74,7.01,51.23,.19,41.12,.19S23.21,6.45,20.28,15.14c-.83-.12-1.68-.18-2.55-.18C7.94,14.96,0,22.9,0,32.7s7.94,17.74,17.74,17.74H55.53c9.79,0,17.74-7.94,17.74-17.74,0-7.39-4.52-13.73-10.96-16.39"/><g><line class="cls-3" x1="63.01" y1="56.47" x2="59.19" y2="75.73"/><line class="cls-5" x1="50.77" y1="56.47" x2="44.62" y2="87.5"/><line class="cls-2" x1="38.54" y1="56.47" x2="34.72" y2="75.73"/><line class="cls-1" x1="26.31" y1="56.47" x2="20.15" y2="87.5"/><line class="cls-4" x1="14.07" y1="56.47" x2="10.25" y2="75.73"/></g></svg>