<?xml version="1.0" encoding="UTF-8"?><svg id="Layer_1" xmlns="http://www.w3.org/2000/svg" xmlns:xlink="http://www.w3.org/1999/xlink" viewBox="0 0 73.26 89.8"><defs><style>.cls-1{fill:url(#linear-gradient-2);}.cls-2{fill:url(#linear-gradient-3);}.cls-3{fill:url(#linear-gradient);}</style><linearGradient id="linear-gradient" x1="36.63" y1="49.55" x2="36.63" y2="1.29" gradientTransform="matrix(1, 0, 0, 1, 0, 0)" gradientUnits="userSpaceOnUse"><stop offset="0" stop-color="#9a9a9a"/><stop offset="1" stop-color="#d8d8d8"/></linearGradient><linearGradient id="linear-gradient-2" x1="36.63" y1="89.8" x2="36.63" y2="56.48" gradientTransform="matrix(1, 0, 0, 1, 0, 0)" gradientUnits="userSpaceOnUse"><stop offset="0" stop-color="#459cdb"/><stop offset=".99" stop-color="#005a8b"/></linearGradient><linearGradient id="linear-gradient-3" x1="36.63" x2="36.63" y2="56.48" xlink:href="#linear-gradient-2"/></defs><path class="cls-3" d="M62.3,16.35C59.74,7.06,51.23,.23,41.12,.23S23.21,6.5,20.28,15.19c-.83-.12-1.68-.18-2.55-.18C7.94,15.01,0,22.95,0,32.74s7.94,17.74,17.74,17.74H55.53c9.79,0,17.74-7.94,17.74-17.74,0-7.39-4.52-13.73-10.96-16.39"/><g><circle class="cls-1" cx="36.63" cy="59.77" r="5.51"/><path class="cls-2" d="M36.13,89.45l-7.86-20.21c-.25-.65,.23-1.35,.92-1.35h14.86c.7,0,1.18,.7,.92,1.35l-7.83,20.21c-.18,.47-.84,.47-1.03,0Z"/></g></svg>