<?xml version="1.0" encoding="UTF-8"?><svg id="Layer_1" xmlns="http://www.w3.org/2000/svg" xmlns:xlink="http://www.w3.org/1999/xlink" viewBox="0 0 73.26 89.55"><defs><style>.cls-1{stroke:url(#linear-gradient-4);}.cls-1,.cls-2,.cls-3,.cls-4{stroke-linecap:round;stroke-linejoin:round;}.cls-1,.cls-3,.cls-4{fill:none;stroke-width:4.46px;}.cls-2{fill:url(#linear-gradient-5);stroke:url(#linear-gradient-6);stroke-width:1.62px;}.cls-3{stroke:url(#linear-gradient-2);}.cls-5{fill:url(#linear-gradient-7);}.cls-6{fill:url(#linear-gradient);}.cls-4{stroke:url(#linear-gradient-3);}</style><linearGradient id="linear-gradient" x1="37.04" y1="49.15" x2="37.04" y2=".89" gradientTransform="matrix(1, 0, 0, 1, 0, 0)" gradientUnits="userSpaceOnUse"><stop offset="0" stop-color="#646464"/><stop offset="1" stop-color="#a8a8a8"/></linearGradient><linearGradient id="linear-gradient-2" x1="68.98" y1="77.61" x2="68.98" y2="53.89" gradientTransform="translate(-18.9) skewX(-11.22)" gradientUnits="userSpaceOnUse"><stop offset="0" stop-color="#459cdb"/><stop offset=".99" stop-color="#005a8b"/></linearGradient><linearGradient id="linear-gradient-3" x1="56.75" y1="89.38" x2="56.75" xlink:href="#linear-gradient-2"/><linearGradient id="linear-gradient-4" x1="44.52" x2="44.52" xlink:href="#linear-gradient-2"/><linearGradient id="linear-gradient-5" x1="43.24" y1="64.18" x2="66.24" y2="64.18" gradientTransform="matrix(1, 0, 0, 1, 0, 0)" gradientUnits="userSpaceOnUse"><stop offset="0" stop-color="#a1d8ff"/><stop offset="1" stop-color="#59beff"/></linearGradient><linearGradient id="linear-gradient-6" x1="42.43" x2="67.05" xlink:href="#linear-gradient-5"/><linearGradient id="linear-gradient-7" x1="46.94" y1="86.27" x2="52.99" y2="86.27" xlink:href="#linear-gradient-5"/></defs><path class="cls-6" d="M62.72,15.95C60.15,6.66,51.64-.16,41.53-.16S23.62,6.1,20.69,14.79c-.83-.12-1.68-.18-2.55-.18C8.35,14.61,.41,22.55,.41,32.35s7.94,17.74,17.74,17.74H55.94c9.79,0,17.74-7.94,17.74-17.74,0-7.39-4.52-13.73-10.96-16.39"/><line class="cls-3" x1="38.95" y1="56.12" x2="35.13" y2="75.38"/><line class="cls-4" x1="26.72" y1="56.12" x2="20.56" y2="87.15"/><line class="cls-1" x1="14.49" y1="56.12" x2="10.67" y2="75.38"/><path class="cls-2" d="M65.72,63.7h-3.56l2-2.01c.2-.2,.2-.53,0-.74-.1-.1-.23-.15-.37-.15s-.27,.05-.37,.15l-2.74,2.74h-4.99l2.67-4.08,3.95-.83c.28-.06,.46-.34,.4-.62-.06-.28-.33-.46-.62-.4l-2.93,.61,2.01-3.08c.16-.24,.09-.57-.15-.72-.09-.06-.19-.09-.29-.09-.17,0-.34,.08-.44,.24l-1.95,2.98-.58-2.78c-.05-.25-.27-.42-.51-.42-.04,0-.07,0-.11,.01-.28,.06-.46,.34-.4,.62l.8,3.8-2.76,4.23-2.4-4.36,1.13-3.87c.08-.28-.08-.57-.36-.65-.05-.01-.1-.02-.15-.02-.23,0-.43,.15-.5,.38l-.84,2.87-1.77-3.22c-.09-.17-.27-.27-.46-.27-.08,0-.17,.02-.25,.07-.25,.14-.34,.46-.21,.71l1.72,3.12-2.72-.79c-.28-.08-.57,.08-.65,.35-.08,.28,.08,.57,.36,.65l3.73,1.08,2.46,4.47h-5.07l-2.74-2.74c-.1-.1-.23-.15-.37-.15s-.27,.05-.37,.15c-.2,.2-.2,.53,0,.74l2.01,2.01h-3.57c-.29,0-.52,.23-.52,.52s.23,.52,.52,.52h3.67l-2.12,2.12c-.2,.2-.2,.53,0,.74,.2,.2,.53,.2,.74,0l2.85-2.85h4.85l-2.71,4.15-3.8,.79c-.28,.06-.46,.34-.4,.62,.06,.28,.33,.46,.62,.4l2.78-.58-1.95,2.98c-.16,.24-.09,.56,.15,.72,.24,.16,.56,.09,.72-.15l2.01-3.07,.61,2.93c.06,.28,.34,.46,.62,.4s.46-.34,.4-.62l-.83-3.95,2.72-4.16,2.43,4.43-1.08,3.73c-.08,.28,.08,.57,.36,.65,.28,.08,.57-.08,.65-.35l.79-2.72,1.72,3.12c.14,.25,.46,.35,.71,.21,.25-.14,.34-.46,.21-.71l-1.77-3.22,2.87,.83c.28,.08,.57-.08,.65-.36,.08-.28-.08-.57-.36-.65l-3.87-1.13-2.36-4.29h4.93l2.85,2.85c.2,.2,.53,.2,.74,0,.2-.2,.2-.53,0-.74l-2.11-2.12h3.67c.29,0,.52-.23,.52-.52s-.23-.52-.52-.52Z"/><circle class="cls-5" cx="49.96" cy="86.27" r="3.02"/></svg>