<?xml version="1.0" encoding="UTF-8"?><svg id="Layer_1" xmlns="http://www.w3.org/2000/svg" xmlns:xlink="http://www.w3.org/1999/xlink" viewBox="0 0 418.33 41.73"><defs><style>.cls-1{fill:#444;}.cls-2{fill:#2d2d2d;font-family:KoPubWorldDotumMedium, KoPubWorldDotum;font-size:12px;}.cls-3{fill:url(#linear-gradient);}</style><linearGradient id="linear-gradient" x1="418.33" y1="23.07" x2="0" y2="23.07" gradientUnits="userSpaceOnUse"><stop offset=".09" stop-color="#1b1dff"/><stop offset=".12" stop-color="#2022ff"/><stop offset=".17" stop-color="#3132ff"/><stop offset=".23" stop-color="#4d4cff"/><stop offset=".28" stop-color="#7371ff"/><stop offset=".31" stop-color="#8481ff"/><stop offset=".34" stop-color="#8a87ff"/><stop offset=".38" stop-color="#9c99ff"/><stop offset=".42" stop-color="#b9b7ff"/><stop offset=".47" stop-color="#e1e1ff"/><stop offset=".5" stop-color="#f9f9ff"/><stop offset=".56" stop-color="#fbfb90"/><stop offset=".62" stop-color="#fefe39"/><stop offset=".64" stop-color="#ffff17"/><stop offset=".68" stop-color="#f9dc11"/><stop offset=".74" stop-color="#f0a607"/><stop offset=".79" stop-color="#eb8402"/><stop offset=".81" stop-color="#e97800"/><stop offset=".87" stop-color="#e65c11"/><stop offset=".95" stop-color="#e43d25"/><stop offset="1" stop-color="#e3312d"/></linearGradient></defs><g><path class="cls-1" d="M15.04,9.08H3.49v-1.33h4.96v-1.27c-1.23-.08-2.17-.36-2.81-.83s-.97-1.07-.97-1.8c0-.77,.41-1.41,1.22-1.9,.83-.49,1.96-.74,3.37-.74s2.53,.25,3.36,.74c.82,.49,1.23,1.12,1.23,1.9,0,.73-.33,1.33-1,1.79-.67,.47-1.59,.75-2.77,.84v1.27h4.96v1.33Zm-1.05,4.49H5.31c-.15,0-.25-.03-.3-.08-.05-.06-.08-.16-.08-.31v-3.32h1.6v2.37h7.46v1.34Zm-2.67-8.68c.26-.12,.46-.27,.6-.44,.14-.17,.21-.37,.21-.6s-.07-.42-.21-.6c-.14-.18-.34-.33-.59-.45s-.56-.21-.91-.28c-.35-.06-.74-.1-1.16-.1-.87,0-1.56,.13-2.09,.38-.52,.25-.78,.6-.78,1.05,0,.22,.07,.42,.21,.6s.34,.32,.59,.43,.56,.21,.91,.27c.35,.07,.74,.1,1.16,.1s.8-.03,1.15-.1,.65-.15,.9-.27Z"/><path class="cls-1" d="M27.25,12.42H15.69v-1.34h4.96v-2.9h-3.12c-.15,0-.25-.03-.3-.08-.05-.06-.08-.16-.08-.31V2.23c0-.14,.03-.24,.08-.3s.16-.09,.31-.09h8.36v1.33h-7.14v3.67h7.25v1.34h-3.72v2.9h4.97v1.34Z"/></g><rect class="cls-3" x="0" y="18.08" width="418.33" height="10" rx="5" ry="5" transform="translate(418.33 46.15) rotate(-180)"/><text class="cls-2" transform="translate(1.22 40.18)"><tspan x="0" y="0" xml:space="preserve">-20℃            -10℃           0℃           10℃            20℃            30℃           40℃</tspan></text></svg>