<?xml version="1.0" encoding="UTF-8"?><svg id="Layer_1" xmlns="http://www.w3.org/2000/svg" xmlns:xlink="http://www.w3.org/1999/xlink" viewBox="0 0 418.33 42.37"><defs><style>.cls-1{fill:#444;}.cls-2{fill:url(#linear-gradient);}</style><linearGradient id="linear-gradient" x1="0" y1="22.7" x2="418.33" y2="22.7" gradientUnits="userSpaceOnUse"><stop offset="0" stop-color="#0036e9"/><stop offset=".03" stop-color="#003be9"/><stop offset=".08" stop-color="#004ce9"/><stop offset=".13" stop-color="#0068e9"/><stop offset=".19" stop-color="#008ee9"/><stop offset=".24" stop-color="#00b8e9"/><stop offset=".26" stop-color="#00bae2"/><stop offset=".29" stop-color="#00c1d0"/><stop offset=".33" stop-color="#00cdb2"/><stop offset=".36" stop-color="#0d8"/><stop offset=".41" stop-color="#00f253"/><stop offset=".43" stop-color="#00ff34"/><stop offset=".51" stop-color="#84ff24"/><stop offset=".57" stop-color="#dcff1a"/><stop offset=".59" stop-color="#ffff17"/><stop offset=".63" stop-color="#f9dc11"/><stop offset=".7" stop-color="#f0a607"/><stop offset=".76" stop-color="#eb8402"/><stop offset=".78" stop-color="#e97800"/><stop offset=".85" stop-color="#e65c11"/><stop offset=".95" stop-color="#e43d25"/><stop offset="1" stop-color="#e3312d"/></linearGradient></defs><g><path class="cls-1" d="M10.74,36.39H1v-.74H5.39v-1.16h.98v1.16h4.37v.74Zm-1.08-1.48c-.41-.06-.8-.14-1.18-.24-.38-.1-.74-.22-1.07-.36-.34-.14-.63-.3-.89-.49-.26-.19-.47-.41-.63-.65-.37,.49-.9,.87-1.6,1.15-.34,.14-.69,.25-1.05,.35-.36,.1-.75,.18-1.16,.25l-.56-.74c.44-.06,.87-.13,1.28-.22,.41-.09,.79-.21,1.13-.35,.34-.14,.62-.3,.86-.5,.24-.2,.41-.44,.5-.72H2.21v-.74h7.33v.74h-3.08c.08,.27,.24,.51,.47,.71s.53,.38,.87,.52c.34,.14,.71,.26,1.13,.36,.42,.1,.84,.17,1.28,.23l-.55,.71Zm.29,4.2H1.83v-.7H9.95v.7Zm-.55,1.69c0,.48-.29,.82-.88,1.03s-1.47,.31-2.65,.31c-2.35,0-3.53-.45-3.53-1.34,0-.41,.3-.72,.89-.94,.59-.22,1.47-.33,2.64-.33s2.02,.11,2.62,.33c.6,.22,.91,.53,.91,.94Zm-1.75,.52c.44-.1,.66-.28,.66-.52,0-.21-.23-.36-.7-.47-.25-.06-.52-.1-.8-.13-.29-.03-.6-.04-.94-.04-.78,0-1.38,.06-1.8,.17-.42,.12-.64,.27-.64,.46,0,.22,.21,.39,.64,.5,.42,.11,1.02,.17,1.8,.17s1.39-.05,1.78-.16Zm.43-3.5H3.65v-.71h4.43v.71Z"/><path class="cls-1" d="M21.21,37.07H11.46v-.8h9.74v.8Zm-1.13-3.67c0,.65-.3,1.16-.91,1.52-.61,.37-1.55,.55-2.82,.55s-2.2-.18-2.82-.55c-.62-.37-.92-.88-.92-1.52s.32-1.14,.95-1.54,1.56-.59,2.8-.59,2.15,.2,2.78,.59,.95,.91,.95,1.53Zm-.18,8.22c0,.1-.02,.16-.05,.2s-.1,.05-.2,.05h-6.62c-.1,0-.16-.02-.2-.05s-.05-.1-.05-.2v-3.13c0-.1,.02-.16,.05-.2,.04-.04,.1-.05,.2-.05h6.62c.1,0,.16,.02,.2,.05,.04,.04,.05,.1,.05,.2v3.13Zm-1.58-7.21c.5-.22,.74-.55,.74-1.01,0-.22-.07-.42-.2-.59-.13-.17-.32-.32-.55-.44-.24-.12-.52-.21-.85-.27s-.7-.09-1.11-.09c-.82,0-1.48,.12-1.98,.35-.5,.24-.74,.58-.74,1.04s.24,.79,.73,1.01c.48,.22,1.15,.32,2,.32s1.47-.11,1.97-.32Zm.62,6.68v-2.08h-5.23v2.08h5.23Z"/><path class="cls-1" d="M24.74,42.37c-.38-.39-.73-.82-1.03-1.28-.3-.46-.56-.95-.77-1.45-.21-.5-.37-1.01-.48-1.52s-.16-1.02-.16-1.51,.06-.99,.17-1.51c.11-.52,.27-1.02,.48-1.52s.46-.98,.76-1.44c.3-.46,.64-.9,1.03-1.3h.72c-.73,.94-1.26,1.9-1.59,2.88s-.5,1.94-.5,2.88,.17,1.9,.5,2.88,.86,1.94,1.59,2.88h-.72Z"/><path class="cls-1" d="M31.06,39.55c-.21,.44-.5,.8-.89,1.07-.38,.28-.88,.41-1.48,.41s-1.07-.14-1.44-.41c-.37-.28-.66-.63-.86-1.07s-.35-.94-.42-1.49c-.07-.56-.11-1.11-.11-1.67s.04-1.12,.11-1.68c.07-.56,.21-1.06,.42-1.51,.21-.45,.5-.81,.86-1.09,.37-.28,.85-.41,1.44-.41s1.09,.14,1.47,.41c.38,.28,.68,.64,.89,1.09,.22,.45,.36,.95,.44,1.51,.08,.56,.12,1.12,.12,1.68s-.04,1.13-.12,1.67-.23,1.04-.44,1.49Zm-1.62,.46c.26-.16,.47-.38,.63-.67,.16-.29,.28-.6,.36-.95,.08-.34,.14-.69,.16-1.04,.02-.35,.04-.67,.04-.96,0-.34-.02-.73-.06-1.17-.04-.44-.13-.87-.26-1.27s-.33-.74-.58-1.01c-.26-.28-.6-.41-1.03-.41s-.76,.14-1,.41c-.24,.28-.43,.61-.55,1.01s-.2,.82-.23,1.27c-.03,.44-.05,.83-.05,1.17,0,.22,0,.47,.02,.74,.01,.27,.04,.55,.08,.83,.04,.28,.1,.56,.18,.83,.08,.27,.19,.51,.32,.71s.3,.38,.5,.5c.2,.13,.44,.19,.73,.19s.54-.06,.74-.19Z"/><path class="cls-1" d="M37.9,35.93c-.11,.43-.3,.78-.56,1.04s-.6,.4-1.01,.4c-.23,0-.44-.04-.62-.11-.18-.07-.37-.19-.56-.35-.22-.18-.4-.31-.55-.4-.15-.09-.32-.14-.49-.14-.24,0-.43,.08-.58,.23-.15,.15-.29,.38-.41,.67l-.54-.32c.11-.38,.3-.7,.57-.96,.27-.26,.59-.38,.98-.38,.23,0,.44,.04,.62,.11,.18,.07,.37,.19,.56,.35,.22,.18,.4,.31,.55,.4,.15,.09,.32,.14,.49,.14,.26,0,.46-.09,.61-.26,.15-.18,.29-.42,.41-.73l.54,.32Z"/><path class="cls-1" d="M39.7,38.44c.14,1.17,.77,1.75,1.91,1.75,.6,0,1.07-.16,1.41-.47,.34-.31,.51-.76,.51-1.33,0-.3-.06-.55-.17-.76-.11-.21-.26-.39-.44-.52-.18-.14-.4-.24-.64-.31-.24-.07-.48-.11-.73-.11h-.48c-.09,0-.14,0-.16-.03-.02-.02-.03-.07-.03-.16v-.44c0-.1,.01-.16,.03-.19,.02-.03,.07-.05,.16-.05h.4c.25,0,.48-.04,.71-.1,.22-.06,.42-.15,.59-.28,.17-.12,.31-.28,.41-.47,.1-.19,.16-.43,.16-.71,0-.51-.17-.9-.5-1.17s-.75-.4-1.25-.4c-1.06,0-1.65,.53-1.75,1.58h-.96c0-.37,.08-.7,.22-1,.14-.3,.32-.55,.56-.76,.24-.21,.53-.37,.86-.48,.33-.11,.7-.17,1.11-.17,.36,0,.7,.05,1.02,.14,.32,.09,.6,.23,.85,.43,.25,.19,.44,.44,.59,.73,.14,.3,.22,.65,.22,1.06,0,.26-.04,.5-.13,.73s-.2,.43-.36,.62c-.16,.18-.34,.34-.56,.47-.22,.13-.46,.22-.73,.26,.3,.04,.56,.12,.8,.25,.24,.13,.45,.29,.62,.48,.17,.19,.31,.42,.4,.67,.1,.26,.14,.53,.14,.82,0,.45-.08,.83-.25,1.15-.16,.32-.38,.58-.65,.78-.27,.2-.58,.35-.93,.45-.35,.1-.72,.14-1.09,.14-.43,0-.82-.06-1.16-.17-.34-.12-.64-.29-.88-.51-.24-.22-.43-.5-.56-.82-.14-.32-.21-.68-.22-1.08h.95Z"/><path class="cls-1" d="M50.9,39.55c-.21,.44-.5,.8-.89,1.07-.38,.28-.88,.41-1.48,.41s-1.07-.14-1.44-.41c-.37-.28-.66-.63-.86-1.07s-.35-.94-.42-1.49c-.07-.56-.11-1.11-.11-1.67s.04-1.12,.11-1.68c.07-.56,.21-1.06,.42-1.51,.21-.45,.5-.81,.86-1.09,.37-.28,.85-.41,1.44-.41s1.09,.14,1.47,.41c.38,.28,.68,.64,.89,1.09,.22,.45,.36,.95,.44,1.51,.08,.56,.12,1.12,.12,1.68s-.04,1.13-.12,1.67-.23,1.04-.44,1.49Zm-1.62,.46c.26-.16,.47-.38,.63-.67,.16-.29,.28-.6,.36-.95,.08-.34,.14-.69,.16-1.04,.02-.35,.04-.67,.04-.96,0-.34-.02-.73-.06-1.17-.04-.44-.13-.87-.26-1.27s-.33-.74-.58-1.01c-.26-.28-.6-.41-1.03-.41s-.76,.14-1,.41c-.24,.28-.43,.61-.55,1.01s-.2,.82-.23,1.27c-.03,.44-.05,.83-.05,1.17,0,.22,0,.47,.02,.74,.01,.27,.04,.55,.08,.83,.04,.28,.1,.56,.18,.83,.08,.27,.19,.51,.32,.71s.3,.38,.5,.5c.2,.13,.44,.19,.73,.19s.54-.06,.74-.19Z"/><path class="cls-1" d="M51.89,42.37c.73-.94,1.26-1.9,1.59-2.88,.33-.98,.5-1.94,.5-2.88s-.17-1.9-.5-2.88c-.33-.98-.86-1.94-1.59-2.88h.72c.38,.4,.73,.83,1.03,1.3,.3,.46,.55,.94,.76,1.44s.37,1,.48,1.52c.11,.52,.17,1.02,.17,1.51s-.05,.99-.16,1.51-.27,1.02-.48,1.52c-.21,.5-.47,.98-.77,1.45-.3,.46-.64,.89-1.03,1.28h-.72Z"/></g><g><path class="cls-1" d="M122.51,40.66h-9.77v-.83h4.38v-2.35h-2.8c-.1,0-.16-.02-.2-.05-.04-.04-.05-.1-.05-.2v-5.44h.95v1.86h5.21v-1.86h.95v5.44c0,.1-.02,.16-.05,.2-.04,.04-.1,.05-.2,.05h-2.82v2.35h4.4v.83Zm-2.28-4.01v-2.2h-5.21v2.2h5.21Z"/><path class="cls-1" d="M132.97,37.71h-9.73v-.78h4.33v-1.12h-2.78c-.1,0-.16-.02-.2-.05s-.05-.1-.05-.2v-3.72c0-.1,.02-.16,.05-.2,.04-.04,.1-.05,.2-.05h6.89v.72h-6.19v1.03h6.17v.71h-6.17v1.03h6.3v.73h-3.2v1.12h4.39v.78Zm-4.87,.66c1.22,0,2.16,.19,2.81,.58,.66,.37,.98,.82,.98,1.36s-.33,.99-.98,1.36c-.66,.38-1.6,.56-2.81,.56s-2.17-.19-2.83-.56c-.65-.37-.97-.82-.97-1.36s.32-.98,.97-1.36c.65-.38,1.59-.58,2.83-.58Zm2.74,1.93c0-.35-.26-.64-.77-.86-.46-.22-1.11-.34-1.96-.34s-1.54,.11-1.99,.34c-.51,.22-.77,.51-.77,.86s.25,.64,.76,.85c.46,.22,1.12,.34,1.99,.34,.39,0,.76-.03,1.09-.08,.34-.06,.62-.14,.86-.24,.24-.1,.43-.23,.57-.38s.21-.31,.21-.49Z"/><path class="cls-1" d="M136.49,42.37c-.38-.39-.73-.82-1.03-1.28-.3-.46-.56-.95-.77-1.45-.21-.5-.37-1.01-.48-1.52s-.16-1.02-.16-1.51,.06-.99,.17-1.51c.11-.52,.27-1.02,.48-1.52s.46-.98,.76-1.44c.3-.46,.64-.9,1.03-1.3h.72c-.73,.94-1.26,1.9-1.59,2.88s-.5,1.94-.5,2.88,.17,1.9,.5,2.88,.86,1.94,1.59,2.88h-.72Z"/><path class="cls-1" d="M138.38,38.44c.14,1.17,.77,1.75,1.91,1.75,.6,0,1.07-.16,1.41-.47,.34-.31,.51-.76,.51-1.33,0-.3-.06-.55-.17-.76-.11-.21-.26-.39-.44-.52-.18-.14-.4-.24-.64-.31-.24-.07-.48-.11-.73-.11h-.48c-.09,0-.14,0-.16-.03-.02-.02-.03-.07-.03-.16v-.44c0-.1,.01-.16,.03-.19,.02-.03,.07-.05,.16-.05h.4c.25,0,.48-.04,.71-.1,.22-.06,.42-.15,.59-.28,.17-.12,.31-.28,.41-.47,.1-.19,.16-.43,.16-.71,0-.51-.17-.9-.5-1.17s-.75-.4-1.25-.4c-1.06,0-1.65,.53-1.75,1.58h-.96c0-.37,.08-.7,.22-1,.14-.3,.32-.55,.56-.76,.24-.21,.53-.37,.86-.48,.33-.11,.7-.17,1.11-.17,.36,0,.7,.05,1.02,.14,.32,.09,.6,.23,.85,.43,.25,.19,.44,.44,.59,.73,.14,.3,.22,.65,.22,1.06,0,.26-.04,.5-.13,.73s-.2,.43-.36,.62c-.16,.18-.34,.34-.56,.47-.22,.13-.46,.22-.73,.26,.3,.04,.56,.12,.8,.25,.24,.13,.45,.29,.62,.48,.17,.19,.31,.42,.4,.67,.1,.26,.14,.53,.14,.82,0,.45-.08,.83-.25,1.15-.16,.32-.38,.58-.65,.78-.27,.2-.58,.35-.93,.45-.35,.1-.72,.14-1.09,.14-.43,0-.82-.06-1.16-.17-.34-.12-.64-.29-.88-.51-.24-.22-.43-.5-.56-.82-.14-.32-.21-.68-.22-1.08h.95Z"/><path class="cls-1" d="M148,40.81h-.95v-7.73c-.22,.23-.48,.45-.8,.66s-.68,.41-1.07,.61v-.91c.36-.16,.7-.36,1.01-.59,.32-.24,.61-.5,.89-.8h.68c.09,0,.15,.02,.18,.05,.03,.03,.05,.09,.05,.18v8.53Z"/><path class="cls-1" d="M156.41,35.93c-.11,.43-.3,.78-.56,1.04s-.6,.4-1.01,.4c-.23,0-.44-.04-.62-.11-.18-.07-.37-.19-.56-.35-.22-.18-.4-.31-.55-.4-.15-.09-.32-.14-.49-.14-.24,0-.43,.08-.58,.23-.15,.15-.29,.38-.41,.67l-.54-.32c.11-.38,.3-.7,.57-.96,.27-.26,.59-.38,.98-.38,.23,0,.44,.04,.62,.11,.18,.07,.37,.19,.56,.35,.22,.18,.4,.31,.55,.4,.15,.09,.32,.14,.49,.14,.26,0,.46-.09,.61-.26,.15-.18,.29-.42,.41-.73l.54,.32Z"/><path class="cls-1" d="M158.56,38.68c.08,.49,.29,.87,.62,1.13,.33,.27,.74,.4,1.23,.4,.25,0,.48-.05,.7-.15,.22-.1,.41-.25,.56-.44,.16-.19,.28-.42,.37-.69,.09-.27,.14-.57,.14-.91,0-.74-.17-1.3-.5-1.66-.33-.36-.75-.55-1.27-.55-.41,0-.76,.1-1.06,.3-.3,.2-.5,.48-.6,.84-.02,.06-.05,.11-.07,.15-.02,.04-.08,.05-.17,.05h-.58c-.07,0-.12,0-.13-.03-.02-.02-.02-.07-.02-.15l.13-4.7c0-.09,.02-.15,.05-.18,.02-.03,.07-.05,.14-.05h4.57v.82h-3.84l-.17,2.95c.18-.26,.45-.45,.79-.59,.34-.14,.73-.2,1.16-.2,.34,0,.67,.06,.98,.19,.31,.12,.58,.31,.8,.55,.23,.24,.41,.55,.54,.93s.2,.82,.2,1.32c0,.44-.07,.84-.2,1.21-.13,.37-.32,.68-.56,.95-.24,.26-.53,.47-.88,.62-.34,.15-.72,.22-1.14,.22-.38,0-.73-.05-1.06-.15-.33-.1-.61-.25-.86-.45-.24-.2-.44-.45-.59-.74s-.23-.63-.26-1h.95Z"/><path class="cls-1" d="M169.41,39.55c-.21,.44-.5,.8-.89,1.07-.38,.28-.88,.41-1.48,.41s-1.07-.14-1.44-.41c-.37-.28-.66-.63-.86-1.07s-.35-.94-.42-1.49c-.07-.56-.11-1.11-.11-1.67s.04-1.12,.11-1.68c.07-.56,.21-1.06,.42-1.51,.21-.45,.5-.81,.86-1.09,.37-.28,.85-.41,1.44-.41s1.09,.14,1.47,.41c.38,.28,.68,.64,.89,1.09,.22,.45,.36,.95,.44,1.51,.08,.56,.12,1.12,.12,1.68s-.04,1.13-.12,1.67-.23,1.04-.44,1.49Zm-1.62,.46c.26-.16,.47-.38,.63-.67,.16-.29,.28-.6,.36-.95,.08-.34,.14-.69,.16-1.04,.02-.35,.04-.67,.04-.96,0-.34-.02-.73-.06-1.17-.04-.44-.13-.87-.26-1.27s-.33-.74-.58-1.01c-.26-.28-.6-.41-1.03-.41s-.76,.14-1,.41c-.24,.28-.43,.61-.55,1.01s-.2,.82-.23,1.27c-.03,.44-.05,.83-.05,1.17,0,.22,0,.47,.02,.74,.01,.27,.04,.55,.08,.83,.04,.28,.1,.56,.18,.83,.08,.27,.19,.51,.32,.71s.3,.38,.5,.5c.2,.13,.44,.19,.73,.19s.54-.06,.74-.19Z"/><path class="cls-1" d="M170.41,42.37c.73-.94,1.26-1.9,1.59-2.88,.33-.98,.5-1.94,.5-2.88s-.17-1.9-.5-2.88c-.33-.98-.86-1.94-1.59-2.88h.72c.38,.4,.73,.83,1.03,1.3,.3,.46,.55,.94,.76,1.44s.37,1,.48,1.52c.11,.52,.17,1.02,.17,1.51s-.05,.99-.16,1.51-.27,1.02-.48,1.52c-.21,.5-.47,.98-.77,1.45-.3,.46-.64,.89-1.03,1.28h-.72Z"/></g><g><path class="cls-1" d="M230.47,38.81c-.23,.06-.5,.11-.8,.16-.3,.05-.64,.1-1,.14s-.72,.07-1.09,.1c-.36,.02-.73,.04-1.09,.04h-1.91c-.1,0-.16-.02-.2-.05-.04-.04-.05-.1-.05-.2v-7.19h.96v6.58h1.34c.8,0,1.53-.05,2.19-.14,.66-.09,1.21-.19,1.64-.28v.85Zm1.49,3.19h-.96v-10.64h.96v3.92h1.56v.89h-1.56v5.83Z"/><path class="cls-1" d="M243.77,37.26h-9.74v-.8h9.74v.8Zm-1.31,4.36c0,.1-.02,.16-.05,.2s-.1,.05-.2,.05h-6.62c-.1,0-.16-.02-.2-.05s-.05-.1-.05-.2v-2.94c0-.1,.02-.16,.05-.2s.1-.05,.2-.05h6.62c.1,0,.16,.02,.2,.05s.05,.1,.05,.2v2.94Zm-.04-6.46c0,.1-.02,.16-.05,.2-.04,.04-.1,.05-.2,.05h-6.55c-.1,0-.16-.02-.2-.05-.04-.04-.05-.1-.05-.2v-3.66h.89v1.15h2.22v-1.15h.83v1.15h2.23v-1.15h.89v3.66Zm-3.92-.49v-1.31h-2.24v1.31h2.24Zm3,6.42v-1.88h-5.23v1.88h5.23Zm.04-6.42v-1.31h-2.26v1.31h2.26Z"/><path class="cls-1" d="M247.3,42.37c-.38-.39-.73-.82-1.03-1.28-.3-.46-.56-.95-.77-1.45-.21-.5-.37-1.01-.48-1.52s-.16-1.02-.16-1.51,.06-.99,.17-1.51c.11-.52,.27-1.02,.48-1.52s.46-.98,.76-1.44c.3-.46,.64-.9,1.03-1.3h.72c-.73,.94-1.26,1.9-1.59,2.88s-.5,1.94-.5,2.88,.17,1.9,.5,2.88,.86,1.94,1.59,2.88h-.72Z"/><path class="cls-1" d="M249.53,38.68c.08,.49,.29,.87,.62,1.13,.33,.27,.74,.4,1.23,.4,.25,0,.48-.05,.7-.15,.22-.1,.41-.25,.56-.44,.16-.19,.28-.42,.37-.69,.09-.27,.14-.57,.14-.91,0-.74-.17-1.3-.5-1.66-.33-.36-.75-.55-1.27-.55-.41,0-.76,.1-1.06,.3-.3,.2-.5,.48-.6,.84-.02,.06-.05,.11-.07,.15-.02,.04-.08,.05-.17,.05h-.58c-.07,0-.12,0-.13-.03-.02-.02-.02-.07-.02-.15l.13-4.7c0-.09,.02-.15,.05-.18,.02-.03,.07-.05,.14-.05h4.57v.82h-3.84l-.17,2.95c.18-.26,.45-.45,.79-.59,.34-.14,.73-.2,1.16-.2,.34,0,.67,.06,.98,.19,.31,.12,.58,.31,.8,.55,.23,.24,.41,.55,.54,.93s.2,.82,.2,1.32c0,.44-.07,.84-.2,1.21-.13,.37-.32,.68-.56,.95-.24,.26-.53,.47-.88,.62-.34,.15-.72,.22-1.14,.22-.38,0-.73-.05-1.06-.15-.33-.1-.61-.25-.86-.45-.24-.2-.44-.45-.59-.74s-.23-.63-.26-1h.95Z"/><path class="cls-1" d="M258.81,40.81h-.95v-7.73c-.21,.23-.48,.45-.8,.66s-.68,.41-1.07,.61v-.91c.36-.16,.7-.36,1.01-.59,.32-.24,.61-.5,.89-.8h.68c.09,0,.15,.02,.18,.05,.03,.03,.05,.09,.05,.18v8.53Z"/><path class="cls-1" d="M267.22,35.93c-.11,.43-.3,.78-.56,1.04-.26,.26-.6,.4-1.01,.4-.23,0-.44-.04-.62-.11-.18-.07-.37-.19-.56-.35-.22-.18-.4-.31-.55-.4-.15-.09-.32-.14-.49-.14-.24,0-.43,.08-.58,.23-.15,.15-.29,.38-.41,.67l-.54-.32c.11-.38,.3-.7,.57-.96,.27-.26,.59-.38,.98-.38,.23,0,.44,.04,.62,.11,.18,.07,.37,.19,.56,.35,.22,.18,.4,.31,.55,.4,.15,.09,.32,.14,.49,.14,.26,0,.46-.09,.61-.26,.15-.18,.29-.42,.41-.73l.54,.32Z"/><path class="cls-1" d="M271.89,40.81h-.95v-7.73c-.22,.23-.48,.45-.8,.66s-.68,.41-1.07,.61v-.91c.36-.16,.7-.36,1.01-.59,.32-.24,.61-.5,.89-.8h.68c.09,0,.15,.02,.18,.05,.03,.03,.05,.09,.05,.18v8.53Z"/><path class="cls-1" d="M280.22,39.55c-.21,.44-.5,.8-.89,1.07-.38,.28-.88,.41-1.48,.41s-1.07-.14-1.44-.41c-.37-.28-.66-.63-.86-1.07s-.35-.94-.42-1.49c-.07-.56-.11-1.11-.11-1.67s.04-1.12,.11-1.68c.07-.56,.21-1.06,.42-1.51,.21-.45,.5-.81,.86-1.09,.37-.28,.85-.41,1.44-.41s1.09,.14,1.47,.41c.38,.28,.68,.64,.89,1.09,.22,.45,.36,.95,.44,1.51,.08,.56,.12,1.12,.12,1.68s-.04,1.13-.12,1.67c-.08,.54-.23,1.04-.44,1.49Zm-1.62,.46c.26-.16,.47-.38,.63-.67,.16-.29,.28-.6,.36-.95,.08-.34,.14-.69,.16-1.04,.02-.35,.04-.67,.04-.96,0-.34-.02-.73-.06-1.17-.04-.44-.13-.87-.26-1.27s-.33-.74-.58-1.01c-.26-.28-.6-.41-1.03-.41s-.76,.14-1,.41c-.24,.28-.43,.61-.55,1.01s-.2,.82-.23,1.27c-.03,.44-.05,.83-.05,1.17,0,.22,0,.47,.02,.74,.01,.27,.04,.55,.08,.83,.04,.28,.1,.56,.18,.83,.08,.27,.19,.51,.32,.71,.14,.21,.3,.38,.5,.5,.2,.13,.44,.19,.73,.19s.54-.06,.74-.19Z"/><path class="cls-1" d="M286.97,39.55c-.21,.44-.5,.8-.89,1.07-.38,.28-.88,.41-1.48,.41s-1.07-.14-1.44-.41c-.37-.28-.66-.63-.86-1.07s-.35-.94-.42-1.49c-.07-.56-.11-1.11-.11-1.67s.04-1.12,.11-1.68c.07-.56,.21-1.06,.42-1.51,.21-.45,.5-.81,.86-1.09,.37-.28,.85-.41,1.44-.41s1.09,.14,1.47,.41c.38,.28,.68,.64,.89,1.09,.22,.45,.36,.95,.44,1.51,.08,.56,.12,1.12,.12,1.68s-.04,1.13-.12,1.67c-.08,.54-.23,1.04-.44,1.49Zm-1.62,.46c.26-.16,.47-.38,.63-.67,.16-.29,.28-.6,.36-.95,.08-.34,.14-.69,.16-1.04,.02-.35,.04-.67,.04-.96,0-.34-.02-.73-.06-1.17-.04-.44-.13-.87-.26-1.27s-.33-.74-.58-1.01c-.26-.28-.6-.41-1.03-.41s-.76,.14-1,.41c-.24,.28-.43,.61-.55,1.01s-.2,.82-.23,1.27c-.03,.44-.05,.83-.05,1.17,0,.22,0,.47,.02,.74,.01,.27,.04,.55,.08,.83,.04,.28,.1,.56,.18,.83,.08,.27,.19,.51,.32,.71,.14,.21,.3,.38,.5,.5,.2,.13,.44,.19,.73,.19s.54-.06,.74-.19Z"/><path class="cls-1" d="M287.97,42.37c.73-.94,1.26-1.9,1.59-2.88s.5-1.94,.5-2.88-.17-1.9-.5-2.88-.86-1.94-1.59-2.88h.72c.38,.4,.73,.83,1.03,1.3,.3,.46,.55,.94,.76,1.44s.37,1,.48,1.52c.11,.52,.17,1.02,.17,1.51s-.05,.99-.16,1.51c-.11,.52-.27,1.02-.48,1.52-.21,.5-.47,.98-.77,1.45-.3,.46-.64,.89-1.03,1.28h-.72Z"/></g><g><path class="cls-1" d="M347.4,39.01c0,.1-.02,.16-.05,.2-.04,.04-.1,.05-.2,.05h-3.3c-.1,0-.16-.02-.2-.05-.04-.04-.05-.1-.05-.2v-6.71c0-.1,.02-.16,.05-.2,.04-.04,.1-.05,.2-.05h3.3c.1,0,.16,.02,.2,.05,.04,.04,.05,.1,.05,.2v6.71Zm-.9-.56v-5.59h-1.99v5.59h1.99Zm5.3,3.55h-.92v-6.1h-1.39v5.58h-.91v-9.95h.91v3.46h1.39v-3.64h.92v10.64Z"/><path class="cls-1" d="M363,38.26h-4.37v3.76h-.97v-3.76h-4.39v-.82h9.73v.82Zm-8.65-4.28c0-.74,.34-1.34,1.01-1.8,.66-.46,1.58-.7,2.77-.7,.58,0,1.11,.06,1.58,.17,.47,.12,.86,.28,1.19,.5,.32,.22,.57,.48,.74,.79,.17,.31,.26,.65,.26,1.04,0,.74-.33,1.34-1,1.8-.67,.45-1.59,.67-2.77,.67-.58,0-1.11-.06-1.57-.17-.46-.12-.86-.28-1.2-.5-.67-.44-1.01-1.04-1.01-1.8Zm6.54,0c0-.55-.26-.97-.78-1.26-.51-.3-1.17-.44-1.98-.44-.42,0-.79,.04-1.13,.11-.34,.08-.63,.19-.88,.33s-.43,.32-.56,.53c-.13,.21-.2,.45-.2,.73s.07,.51,.21,.72c.14,.21,.33,.38,.58,.53s.54,.25,.88,.32c.34,.07,.71,.11,1.1,.11,.79,0,1.45-.14,1.97-.43,.53-.3,.79-.71,.79-1.25Z"/><path class="cls-1" d="M370.62,38.81c-.23,.06-.5,.11-.8,.16-.3,.05-.64,.1-1,.14-.36,.04-.72,.07-1.09,.1-.36,.02-.73,.04-1.09,.04h-1.91c-.1,0-.16-.02-.2-.05-.04-.04-.05-.1-.05-.2v-7.19h.96v6.58h1.34c.8,0,1.53-.05,2.19-.14,.66-.09,1.21-.19,1.64-.28v.85Zm1.49,3.19h-.96v-10.64h.96v3.92h1.56v.89h-1.56v5.83Z"/><path class="cls-1" d="M383.93,37.26h-9.74v-.8h9.74v.8Zm-1.31,4.36c0,.1-.02,.16-.05,.2-.04,.04-.1,.05-.2,.05h-6.62c-.1,0-.16-.02-.2-.05-.04-.04-.05-.1-.05-.2v-2.94c0-.1,.02-.16,.05-.2,.04-.04,.1-.05,.2-.05h6.62c.1,0,.16,.02,.2,.05,.04,.04,.05,.1,.05,.2v2.94Zm-.04-6.46c0,.1-.02,.16-.05,.2-.04,.04-.1,.05-.2,.05h-6.55c-.1,0-.16-.02-.2-.05-.04-.04-.05-.1-.05-.2v-3.66h.89v1.15h2.22v-1.15h.83v1.15h2.23v-1.15h.89v3.66Zm-3.92-.49v-1.31h-2.24v1.31h2.24Zm3,6.42v-1.88h-5.23v1.88h5.23Zm.04-6.42v-1.31h-2.26v1.31h2.26Z"/><path class="cls-1" d="M387.45,42.37c-.38-.39-.73-.82-1.03-1.28-.3-.46-.56-.95-.77-1.45-.21-.5-.37-1.01-.48-1.52-.11-.52-.16-1.02-.16-1.51s.06-.99,.17-1.51c.11-.52,.27-1.02,.48-1.52,.21-.5,.46-.98,.76-1.44s.64-.9,1.03-1.3h.72c-.73,.94-1.26,1.9-1.59,2.88-.33,.98-.5,1.94-.5,2.88s.17,1.9,.5,2.88c.33,.98,.86,1.94,1.59,2.88h-.72Z"/><path class="cls-1" d="M392.21,40.81h-.95v-7.73c-.22,.23-.48,.45-.8,.66s-.68,.41-1.07,.61v-.91c.36-.16,.7-.36,1.01-.59,.32-.24,.61-.5,.89-.8h.68c.09,0,.15,.02,.18,.05,.03,.03,.05,.09,.05,.18v8.53Z"/><path class="cls-1" d="M400.53,39.55c-.21,.44-.5,.8-.89,1.07-.38,.28-.88,.41-1.48,.41s-1.07-.14-1.44-.41c-.37-.28-.66-.63-.86-1.07s-.35-.94-.42-1.49c-.07-.56-.11-1.11-.11-1.67s.04-1.12,.11-1.68c.07-.56,.21-1.06,.42-1.51,.21-.45,.5-.81,.86-1.09,.37-.28,.85-.41,1.44-.41s1.09,.14,1.47,.41c.38,.28,.68,.64,.89,1.09,.22,.45,.36,.95,.44,1.51,.08,.56,.12,1.12,.12,1.68s-.04,1.13-.12,1.67c-.08,.54-.23,1.04-.44,1.49Zm-1.62,.46c.26-.16,.47-.38,.63-.67,.16-.29,.28-.6,.36-.95,.08-.34,.14-.69,.16-1.04,.02-.35,.04-.67,.04-.96,0-.34-.02-.73-.06-1.17-.04-.44-.13-.87-.26-1.27s-.33-.74-.58-1.01c-.26-.28-.6-.41-1.03-.41s-.76,.14-1,.41c-.24,.28-.43,.61-.55,1.01s-.2,.82-.23,1.27c-.03,.44-.05,.83-.05,1.17,0,.22,0,.47,.02,.74,.01,.27,.04,.55,.08,.83,.04,.28,.1,.56,.18,.83,.08,.27,.19,.51,.32,.71,.14,.21,.3,.38,.5,.5,.2,.13,.44,.19,.73,.19s.54-.06,.74-.19Z"/><path class="cls-1" d="M405.72,40.81h-.95v-7.73c-.22,.23-.48,.45-.8,.66s-.68,.41-1.07,.61v-.91c.36-.16,.7-.36,1.01-.59,.32-.24,.61-.5,.89-.8h.68c.09,0,.15,.02,.18,.05,.03,.03,.05,.09,.05,.18v8.53Z"/><path class="cls-1" d="M414.13,35.93c-.11,.43-.3,.78-.56,1.04-.26,.26-.6,.4-1.01,.4-.23,0-.44-.04-.62-.11-.18-.07-.37-.19-.56-.35-.22-.18-.4-.31-.55-.4-.15-.09-.32-.14-.49-.14-.24,0-.43,.08-.58,.23-.15,.15-.29,.38-.41,.67l-.54-.32c.11-.38,.3-.7,.57-.96,.27-.26,.59-.38,.98-.38,.23,0,.44,.04,.62,.11,.18,.07,.37,.19,.56,.35,.22,.18,.4,.31,.55,.4,.15,.09,.32,.14,.49,.14,.26,0,.46-.09,.61-.26,.15-.18,.29-.42,.41-.73l.54,.32Z"/><path class="cls-1" d="M414.61,42.37c.73-.94,1.26-1.9,1.59-2.88s.5-1.94,.5-2.88-.17-1.9-.5-2.88-.86-1.94-1.59-2.88h.72c.38,.4,.73,.83,1.03,1.3,.3,.46,.55,.94,.76,1.44s.37,1,.48,1.52c.11,.52,.17,1.02,.17,1.51s-.05,.99-.16,1.51c-.11,.52-.27,1.02-.48,1.52-.21,.5-.47,.98-.77,1.45-.3,.46-.64,.89-1.03,1.28h-.72Z"/></g><g><path class="cls-1" d="M9.19,9.06c0,.15-.03,.25-.09,.31s-.16,.08-.3,.08H3.65c-.15,0-.25-.03-.3-.08s-.08-.15-.08-.3V1.13c0-.14,.03-.24,.08-.3,.06-.06,.16-.09,.31-.09h5.14c.26,0,.39,.13,.39,.39v7.92Zm-1.57-.94V2.07h-2.79v6.05h2.79Zm5.21,4.41h-1.58V0h1.58V12.53Z"/><path class="cls-1" d="M19.75,9.81c-.48-.39-.9-.85-1.27-1.37-.37-.52-.64-1.04-.82-1.57-.07,.27-.17,.55-.31,.85s-.32,.58-.52,.86c-.21,.29-.43,.57-.67,.83-.24,.27-.49,.51-.74,.72l-1.34-.95c.51-.36,.95-.77,1.3-1.22,.35-.45,.64-.93,.86-1.46,.22-.52,.38-1.08,.48-1.67,.1-.59,.15-1.21,.15-1.85V.49h1.67V3.08c0,1.33,.18,2.46,.56,3.4s1.01,1.72,1.89,2.35l-1.22,.99Zm3.25,2.13h-1.54V5.1h-1.95v-1.47h1.95V.21h1.54V11.94Zm2.45,.59h-1.53V0h1.53V12.53Z"/><path class="cls-1" d="M37.31,9.06h-1.58V4.17h-2.27v2.14c0,.15-.03,.25-.09,.31-.06,.06-.16,.08-.3,.08h-5.11c-.15,0-.25-.03-.3-.08s-.08-.15-.08-.3V.9c0-.14,.03-.24,.08-.3,.06-.06,.16-.09,.31-.09h5.1c.26,0,.39,.13,.39,.39v1.92h2.27V0h1.58V9.06Zm.25,3.23h-8.32c-.15,0-.25-.03-.3-.08-.05-.06-.08-.16-.08-.31v-3.86h1.6v2.91h7.1v1.34Zm-5.66-6.92V1.83h-2.79v3.54h2.79Z"/><path class="cls-1" d="M46.03,9.88c-.67-.43-1.27-.93-1.79-1.49-.52-.56-.9-1.15-1.13-1.77-.24,.66-.64,1.31-1.2,1.95-.29,.33-.58,.63-.88,.9-.29,.27-.59,.51-.89,.73l-1.3-1.05c.51-.31,.98-.66,1.41-1.06,.42-.4,.78-.85,1.08-1.36s.52-1.06,.69-1.67c.16-.61,.24-1.27,.24-1.99v-1.02h-2.52V.73h6.76v1.32h-2.55v1.09c0,1.24,.25,2.34,.76,3.29s1.32,1.75,2.44,2.38l-1.12,1.08Zm3.68,2.65h-1.58V0h1.58V12.53Z"/><path class="cls-1" d="M65.77,7.24h-1.57V3.93h-2.23v2.24c0,.15-.03,.25-.09,.31-.06,.06-.16,.08-.3,.08h-5.15c-.15,0-.25-.03-.3-.08-.05-.06-.08-.16-.08-.31V.36h1.57v1.82h2.79V.36h1.57V2.58h2.23V0h1.57V7.24Zm0,4.75c0,.15-.03,.25-.09,.31-.06,.06-.16,.08-.3,.08h-7.63c-.15,0-.25-.03-.31-.08s-.08-.16-.08-.31v-3.86c0-.14,.03-.24,.08-.3,.06-.06,.16-.09,.31-.09h7.63c.26,0,.39,.13,.39,.39v3.86Zm-5.36-6.75v-1.72h-2.79v1.72h2.79Zm3.79,5.85v-2.06h-5.28v2.06h5.28Z"/><path class="cls-1" d="M73.65,9.24c-.14,.02-.32,.04-.53,.08s-.46,.06-.73,.09c-.27,.03-.57,.05-.9,.08s-.67,.04-1.02,.04h-1.82c-.15,.01-.25-.01-.31-.07-.06-.06-.08-.16-.08-.31V4.83c0-.14,.03-.24,.08-.3,.06-.06,.16-.09,.31-.09h2.18V1.99h-2.58V.64h3.75c.26,0,.39,.13,.39,.39V5.36c0,.15-.03,.25-.09,.31-.06,.06-.16,.08-.3,.08h-2.2v2.44h1.22c.21-.01,.43-.02,.67-.04s.48-.04,.71-.06c.49-.04,.91-.09,1.23-.17v1.32Zm2.11,2.7h-1.54V6.82h-1.5v-1.4h1.5v-1.72h-1.5v-1.37h1.5V.21h1.54V11.94Zm2.42,.57h-1.54V0h1.54V12.52Z"/></g><rect class="cls-2" x="0" y="17.68" width="418.33" height="10.03" rx="5.01" ry="5.01"/></svg>