<?xml version="1.0" encoding="UTF-8"?><svg id="Layer_1" xmlns="http://www.w3.org/2000/svg" xmlns:xlink="http://www.w3.org/1999/xlink" viewBox="0 0 418.33 40.03"><defs><style>.cls-1{fill:#444;}.cls-2{fill:#2d2d2d;font-family:KoPubWorldDotumMedium, KoPubWorldDotum;font-size:12px;}.cls-3{fill:url(#linear-gradient);}</style><linearGradient id="linear-gradient" x1="0" y1="21.6" x2="418.33" y2="21.6" gradientUnits="userSpaceOnUse"><stop offset="0" stop-color="#0036e9"/><stop offset=".03" stop-color="#003be9"/><stop offset=".08" stop-color="#004ce9"/><stop offset=".13" stop-color="#0068e9"/><stop offset=".19" stop-color="#008ee9"/><stop offset=".24" stop-color="#00b8e9"/><stop offset=".26" stop-color="#00bae2"/><stop offset=".29" stop-color="#00c1d0"/><stop offset=".33" stop-color="#00cdb2"/><stop offset=".36" stop-color="#0d8"/><stop offset=".41" stop-color="#00f253"/><stop offset=".43" stop-color="#00ff34"/><stop offset=".51" stop-color="#84ff24"/><stop offset=".57" stop-color="#dcff1a"/><stop offset=".59" stop-color="#ffff17"/><stop offset=".63" stop-color="#f9dc11"/><stop offset=".7" stop-color="#f0a607"/><stop offset=".76" stop-color="#eb8402"/><stop offset=".78" stop-color="#e97800"/><stop offset=".85" stop-color="#e65c11"/><stop offset=".95" stop-color="#e43d25"/><stop offset="1" stop-color="#e3312d"/></linearGradient></defs><g><path class="cls-1" d="M15.04,6.5H3.49v-1.3H15.04v1.3Zm-1.47-1.93c-.39-.07-.81-.17-1.24-.32-.43-.15-.85-.33-1.25-.53-.39-.21-.75-.45-1.07-.69-.32-.25-.57-.5-.74-.76-.39,.56-.96,1.03-1.69,1.41s-1.61,.68-2.63,.9l-.94-1.12c.54-.09,1.07-.22,1.6-.39,.52-.16,.99-.37,1.41-.62,.42-.24,.76-.53,1.01-.86,.25-.33,.38-.72,.38-1.17v-.41h1.74V.41c0,.42,.11,.8,.37,1.14,.26,.34,.59,.64,1.02,.89,.42,.26,.89,.48,1.4,.64,.51,.17,1.04,.29,1.57,.38l-.92,1.11Zm.01,7.42c0,.15-.03,.25-.09,.31-.06,.06-.16,.08-.3,.08H5.33c-.15,0-.25-.03-.31-.08-.06-.06-.08-.16-.08-.31V7.35h1.55v1.13h5.52v-1.13h1.58v4.63Zm-1.58-.87v-1.4H6.49v1.4h5.52Z"/><path class="cls-1" d="M27.25,11.14H15.69v-1.34h4.96v-2.9h-3.12c-.15,0-.25-.03-.3-.08-.05-.06-.08-.16-.08-.31V.95c0-.14,.03-.24,.08-.3s.16-.09,.31-.09h8.36V1.89h-7.14v3.67h7.25v1.34h-3.72v2.9h4.97v1.34Z"/></g><rect class="cls-3" x="0" y="16.6" width="418.33" height="10" rx="5" ry="5" transform="translate(418.33 43.2) rotate(180)"/><text class="cls-2" transform="translate(.22 38.57)"><tspan x="0" y="0" xml:space="preserve">0%               30%               50%                 80%                 90%               100%</tspan></text></svg>