<?xml version="1.0" encoding="UTF-8"?><svg id="Layer_1" xmlns="http://www.w3.org/2000/svg" xmlns:xlink="http://www.w3.org/1999/xlink" viewBox="0 0 418.33 42.37"><defs><style>.cls-1{fill:#4f4f4f;font-family:KoPubWorldDotumMedium, KoPubWorldDotum;font-size:11.5px;letter-spacing:-.02em;}.cls-2{fill:#444;}.cls-3{fill:url(#linear-gradient);}</style><linearGradient id="linear-gradient" x1="0" y1="22.7" x2="418.33" y2="22.7" gradientUnits="userSpaceOnUse"><stop offset="0" stop-color="#0036e9"/><stop offset=".03" stop-color="#003be9"/><stop offset=".08" stop-color="#004ce9"/><stop offset=".13" stop-color="#0068e9"/><stop offset=".19" stop-color="#008ee9"/><stop offset=".24" stop-color="#00b8e9"/><stop offset=".26" stop-color="#00bae2"/><stop offset=".29" stop-color="#00c1d0"/><stop offset=".33" stop-color="#00cdb2"/><stop offset=".36" stop-color="#0d8"/><stop offset=".41" stop-color="#00f253"/><stop offset=".43" stop-color="#00ff34"/><stop offset=".51" stop-color="#84ff24"/><stop offset=".57" stop-color="#dcff1a"/><stop offset=".59" stop-color="#ffff17"/><stop offset=".63" stop-color="#f9dc11"/><stop offset=".7" stop-color="#f0a607"/><stop offset=".76" stop-color="#eb8402"/><stop offset=".78" stop-color="#e97800"/><stop offset=".85" stop-color="#e65c11"/><stop offset=".95" stop-color="#e43d25"/><stop offset="1" stop-color="#e3312d"/></linearGradient></defs><g><path class="cls-2" d="M9.19,9.06c0,.15-.03,.25-.09,.31s-.16,.08-.3,.08H3.65c-.15,0-.25-.03-.3-.08s-.08-.15-.08-.3V1.13c0-.14,.03-.24,.08-.3,.06-.06,.16-.09,.31-.09h5.14c.26,0,.39,.13,.39,.39v7.92Zm-1.57-.94V2.07h-2.79v6.05h2.79Zm5.21,4.41h-1.58V0h1.58V12.53Z"/><path class="cls-2" d="M19.75,9.81c-.48-.39-.9-.85-1.27-1.37-.37-.52-.64-1.04-.82-1.57-.07,.27-.17,.55-.31,.85s-.32,.58-.52,.86c-.21,.29-.43,.57-.67,.83-.24,.27-.49,.51-.74,.72l-1.34-.95c.51-.36,.95-.77,1.3-1.22,.35-.45,.64-.93,.86-1.46,.22-.52,.38-1.08,.48-1.67,.1-.59,.15-1.21,.15-1.85V.49h1.67V3.08c0,1.33,.18,2.46,.56,3.4s1.01,1.72,1.89,2.35l-1.22,.99Zm3.25,2.13h-1.54V5.1h-1.95v-1.47h1.95V.21h1.54V11.94Zm2.45,.59h-1.53V0h1.53V12.53Z"/><path class="cls-2" d="M37.31,9.06h-1.58V4.17h-2.27v2.14c0,.15-.03,.25-.09,.31-.06,.06-.16,.08-.3,.08h-5.11c-.15,0-.25-.03-.3-.08s-.08-.15-.08-.3V.9c0-.14,.03-.24,.08-.3,.06-.06,.16-.09,.31-.09h5.1c.26,0,.39,.13,.39,.39v1.92h2.27V0h1.58V9.06Zm.25,3.23h-8.32c-.15,0-.25-.03-.3-.08-.05-.06-.08-.16-.08-.31v-3.86h1.6v2.91h7.1v1.34Zm-5.66-6.92V1.83h-2.79v3.54h2.79Z"/><path class="cls-2" d="M46.03,9.88c-.67-.43-1.27-.93-1.79-1.49-.52-.56-.9-1.15-1.13-1.77-.24,.66-.64,1.31-1.2,1.95-.29,.33-.58,.63-.88,.9-.29,.27-.59,.51-.89,.73l-1.3-1.05c.51-.31,.98-.66,1.41-1.06,.42-.4,.78-.85,1.08-1.36s.52-1.06,.69-1.67c.16-.61,.24-1.27,.24-1.99v-1.02h-2.52V.73h6.76v1.32h-2.55v1.09c0,1.24,.25,2.34,.76,3.29s1.32,1.75,2.44,2.38l-1.12,1.08Zm3.68,2.65h-1.58V0h1.58V12.53Z"/><path class="cls-2" d="M65.77,7.24h-1.57V3.93h-2.23v2.24c0,.15-.03,.25-.09,.31-.06,.06-.16,.08-.3,.08h-5.15c-.15,0-.25-.03-.3-.08-.05-.06-.08-.16-.08-.31V.36h1.57v1.82h2.79V.36h1.57V2.58h2.23V0h1.57V7.24Zm0,4.75c0,.15-.03,.25-.09,.31-.06,.06-.16,.08-.3,.08h-7.63c-.15,0-.25-.03-.31-.08s-.08-.16-.08-.31v-3.86c0-.14,.03-.24,.08-.3,.06-.06,.16-.09,.31-.09h7.63c.26,0,.39,.13,.39,.39v3.86Zm-5.36-6.75v-1.72h-2.79v1.72h2.79Zm3.79,5.85v-2.06h-5.28v2.06h5.28Z"/><path class="cls-2" d="M73.65,9.24c-.14,.02-.32,.04-.53,.08s-.46,.06-.73,.09c-.27,.03-.57,.05-.9,.08s-.67,.04-1.02,.04h-1.82c-.15,.01-.25-.01-.31-.07-.06-.06-.08-.16-.08-.31V4.83c0-.14,.03-.24,.08-.3,.06-.06,.16-.09,.31-.09h2.18V1.99h-2.58V.64h3.75c.26,0,.39,.13,.39,.39V5.36c0,.15-.03,.25-.09,.31-.06,.06-.16,.08-.3,.08h-2.2v2.44h1.22c.21-.01,.43-.02,.67-.04s.48-.04,.71-.06c.49-.04,.91-.09,1.23-.17v1.32Zm2.11,2.7h-1.54V6.82h-1.5v-1.4h1.5v-1.72h-1.5v-1.37h1.5V.21h1.54V11.94Zm2.42,.57h-1.54V0h1.54V12.52Z"/></g><rect class="cls-3" x="0" y="17.68" width="418.33" height="10.03" rx="5.01" ry="5.01"/><text class="cls-1" transform="translate(-.32 39.59)"><tspan x="0" y="0" xml:space="preserve">좋음(0~30)                   보통(31~80)                  나쁨(81~150)                   매우나쁨(151~)</tspan></text></svg>