<?xml version="1.0" encoding="UTF-8"?><svg id="Layer_1" xmlns="http://www.w3.org/2000/svg" viewBox="0 0 418.33 11.35"><defs><style>.cls-1{fill:#8c9091;}.cls-2{fill:#39b8df;}.cls-3{fill:#f97b47;}.cls-4{fill:#444;}.cls-5{fill:#91cf56;}.cls-6{fill:#f93f3e;}</style></defs><g><path class="cls-4" d="M20.54,7.99c0,.1-.02,.16-.05,.2-.04,.04-.1,.05-.2,.05h-4.31c-.1,0-.16-.02-.2-.05s-.05-.1-.05-.2V1.24c0-.1,.02-.16,.05-.2,.04-.04,.1-.05,.2-.05h4.31c.1,0,.16,.02,.2,.05s.05,.1,.05,.2V7.99Zm-.94-.58V1.81h-2.93V7.42h2.93Zm4.03,3.58h-.95V.36h.95V10.99Z"/><path class="cls-4" d="M35.05,7.06h-4.34v3.96h-.97v-3.96h-4.42v-.82h9.73v.82Zm-1.09-1.98c-.38-.1-.77-.22-1.15-.38-.38-.16-.75-.34-1.09-.56-.34-.22-.65-.46-.92-.72-.27-.26-.47-.56-.61-.88-.18,.34-.4,.64-.67,.91s-.58,.5-.91,.7c-.34,.21-.69,.39-1.06,.54-.37,.15-.74,.28-1.13,.38l-.66-.74c2.59-.62,3.89-1.68,3.89-3.16V.61h1.06v.55c0,.43,.11,.82,.32,1.16s.5,.64,.86,.91c.36,.26,.77,.49,1.24,.67,.46,.18,.94,.32,1.43,.42l-.6,.76Z"/><path class="cls-4" d="M41.73,6.28c-.23-.1-.47-.24-.73-.4-.25-.16-.5-.35-.74-.56-.24-.22-.47-.45-.68-.7-.21-.25-.38-.52-.51-.81-.11,.31-.26,.6-.45,.88-.19,.27-.4,.53-.64,.77-.24,.23-.49,.44-.76,.64-.27,.19-.53,.36-.8,.5l-.73-.66c.39-.18,.76-.4,1.11-.66,.35-.26,.65-.55,.92-.89,.26-.34,.46-.7,.62-1.1,.16-.4,.23-.84,.23-1.32V.62h.98V1.87c0,.46,.08,.88,.23,1.26,.16,.38,.36,.73,.62,1.04,.26,.31,.55,.58,.89,.82,.34,.23,.69,.41,1.05,.54l-.62,.74Zm3.25,4.5h-6.94c-.1,0-.16-.02-.2-.05s-.05-.1-.05-.2v-3.14h.96v2.58h6.23v.82Zm-.31-2.62h-.94V.36h.94v7.8Z"/><path class="cls-4" d="M111.66,5.39h-9.74v-.74h4.39v-1.16h.98v1.16h4.37v.74Zm-1.08-1.48c-.41-.06-.8-.14-1.18-.24-.38-.1-.74-.22-1.07-.36-.34-.14-.63-.3-.89-.49-.26-.19-.47-.41-.63-.65-.37,.49-.9,.87-1.6,1.15-.34,.14-.69,.25-1.05,.35-.36,.1-.75,.18-1.16,.25l-.56-.74c.44-.06,.87-.13,1.28-.22,.41-.09,.79-.21,1.13-.35,.34-.14,.62-.3,.86-.5,.24-.2,.41-.44,.5-.72h-3.08V.64h7.33v.74h-3.08c.08,.27,.24,.51,.47,.71s.53,.38,.87,.52c.34,.14,.71,.26,1.13,.36,.42,.1,.84,.17,1.28,.23l-.55,.71Zm.29,4.2h-8.12v-.7h8.12v.7Zm-.55,1.69c0,.48-.29,.82-.88,1.03s-1.47,.31-2.65,.31c-2.35,0-3.53-.45-3.53-1.34,0-.41,.3-.72,.89-.94,.59-.22,1.47-.33,2.64-.33s2.02,.11,2.62,.33c.6,.22,.91,.53,.91,.94Zm-1.75,.52c.44-.1,.66-.28,.66-.52,0-.21-.23-.36-.7-.47-.25-.06-.52-.1-.8-.13-.29-.03-.6-.04-.94-.04-.78,0-1.38,.06-1.8,.17-.42,.12-.64,.27-.64,.46,0,.22,.21,.39,.64,.5,.42,.11,1.02,.17,1.8,.17s1.39-.05,1.78-.16Zm.43-3.5h-4.43v-.71h4.43v.71Z"/><path class="cls-4" d="M122.12,6.07h-9.74v-.8h9.74v.8Zm-1.13-3.67c0,.65-.3,1.16-.91,1.52-.61,.37-1.55,.55-2.82,.55s-2.2-.18-2.82-.55c-.62-.37-.92-.88-.92-1.52s.32-1.14,.95-1.54,1.56-.59,2.8-.59,2.15,.2,2.78,.59,.95,.91,.95,1.53Zm-.18,8.22c0,.1-.02,.16-.05,.2s-.1,.05-.2,.05h-6.62c-.1,0-.16-.02-.2-.05s-.05-.1-.05-.2v-3.13c0-.1,.02-.16,.05-.2,.04-.04,.1-.05,.2-.05h6.62c.1,0,.16,.02,.2,.05,.04,.04,.05,.1,.05,.2v3.13Zm-1.58-7.21c.5-.22,.74-.55,.74-1.01,0-.22-.07-.42-.2-.59-.13-.17-.32-.32-.55-.44-.24-.12-.52-.21-.85-.27s-.7-.09-1.11-.09c-.82,0-1.48,.12-1.98,.35-.5,.24-.74,.58-.74,1.04s.24,.79,.73,1.01c.48,.22,1.15,.32,2,.32s1.47-.11,1.97-.32Zm.62,6.68v-2.08h-5.23v2.08h5.23Z"/><path class="cls-4" d="M205.67,9.66h-9.77v-.83h4.38v-2.35h-2.8c-.1,0-.16-.02-.2-.05-.04-.04-.05-.1-.05-.2V.79h.95v1.86h5.21V.79h.95V6.23c0,.1-.02,.16-.05,.2-.04,.04-.1,.05-.2,.05h-2.82v2.35h4.4v.83Zm-2.28-4.01V3.46h-5.21v2.2h5.21Z"/><path class="cls-4" d="M216.13,6.71h-9.73v-.78h4.33v-1.12h-2.78c-.1,0-.16-.02-.2-.05s-.05-.1-.05-.2V.84c0-.1,.02-.16,.05-.2,.04-.04,.1-.05,.2-.05h6.89v.72h-6.19v1.03h6.17v.71h-6.17v1.03h6.3v.73h-3.2v1.12h4.39v.78Zm-4.87,.66c1.22,0,2.16,.19,2.81,.58,.66,.37,.98,.82,.98,1.36s-.33,.99-.98,1.36c-.66,.38-1.6,.56-2.81,.56s-2.17-.19-2.83-.56c-.65-.37-.97-.82-.97-1.36s.32-.98,.97-1.36c.65-.38,1.59-.58,2.83-.58Zm2.74,1.93c0-.35-.26-.64-.77-.86-.46-.22-1.11-.34-1.96-.34s-1.54,.11-1.99,.34c-.51,.22-.77,.51-.77,.86s.25,.64,.76,.85c.46,.22,1.12,.34,1.99,.34,.39,0,.76-.03,1.09-.08,.34-.06,.62-.14,.86-.24,.24-.1,.43-.23,.57-.38s.21-.31,.21-.49Z"/><path class="cls-4" d="M289.87,7.81c-.23,.06-.5,.11-.8,.16-.3,.05-.64,.1-1,.14-.36,.04-.72,.07-1.09,.1-.36,.02-.73,.04-1.09,.04h-1.91c-.1,0-.16-.02-.2-.05-.04-.04-.05-.1-.05-.2V.8h.96V7.38h1.34c.8,0,1.53-.05,2.19-.14,.66-.09,1.21-.19,1.64-.28v.85Zm1.49,3.19h-.96V.36h.96v3.92h1.56v.89h-1.56v5.83Z"/><path class="cls-4" d="M303.17,6.26h-9.74v-.8h9.74v.8Zm-1.31,4.36c0,.1-.02,.16-.05,.2-.04,.04-.1,.05-.2,.05h-6.62c-.1,0-.16-.02-.2-.05-.04-.04-.05-.1-.05-.2v-2.94c0-.1,.02-.16,.05-.2,.04-.04,.1-.05,.2-.05h6.62c.1,0,.16,.02,.2,.05,.04,.04,.05,.1,.05,.2v2.94Zm-.04-6.46c0,.1-.02,.16-.05,.2-.04,.04-.1,.05-.2,.05h-6.55c-.1,0-.16-.02-.2-.05-.04-.04-.05-.1-.05-.2V.5h.89V1.66h2.22V.5h.83V1.66h2.23V.5h.89v3.66Zm-3.92-.49v-1.31h-2.24v1.31h2.24Zm3,6.42v-1.88h-5.23v1.88h5.23Zm.04-6.42v-1.31h-2.26v1.31h2.26Z"/><path class="cls-4" d="M381.58,8.02c0,.1-.02,.16-.05,.2-.04,.04-.1,.05-.2,.05h-3.3c-.1,0-.16-.02-.2-.05-.04-.04-.05-.1-.05-.2V1.31c0-.1,.02-.16,.05-.2,.04-.04,.1-.05,.2-.05h3.3c.1,0,.16,.02,.2,.05,.04,.04,.05,.1,.05,.2v6.71Zm-.9-.56V1.86h-1.99V7.45h1.99Zm5.3,3.55h-.92V4.91h-1.39v5.58h-.91V.54h.91V4h1.39V.36h.92V11Z"/><path class="cls-4" d="M397.18,7.26h-4.37v3.76h-.97v-3.76h-4.39v-.82h9.73v.82Zm-8.65-4.28c0-.74,.34-1.34,1.01-1.8,.66-.46,1.58-.7,2.77-.7,.58,0,1.11,.06,1.58,.17,.47,.12,.86,.28,1.19,.5,.32,.22,.57,.48,.74,.79,.17,.31,.26,.65,.26,1.04,0,.74-.33,1.34-1,1.8-.67,.45-1.59,.67-2.77,.67-.58,0-1.11-.06-1.57-.17-.46-.12-.86-.28-1.2-.5-.67-.44-1.01-1.04-1.01-1.8Zm6.54,0c0-.55-.26-.97-.78-1.26-.51-.3-1.17-.44-1.98-.44-.42,0-.79,.04-1.13,.11-.34,.08-.63,.19-.88,.33s-.43,.32-.56,.53c-.13,.21-.2,.45-.2,.73s.07,.51,.21,.72c.14,.21,.33,.38,.58,.53s.54,.25,.88,.32c.34,.07,.71,.11,1.1,.11,.79,0,1.45-.14,1.97-.43,.53-.3,.79-.71,.79-1.25Z"/><path class="cls-4" d="M404.8,7.81c-.23,.06-.5,.11-.8,.16-.3,.05-.64,.1-1,.14-.36,.04-.72,.07-1.09,.1-.36,.02-.73,.04-1.09,.04h-1.91c-.1,0-.16-.02-.2-.05-.04-.04-.05-.1-.05-.2V.8h.96V7.38h1.34c.8,0,1.53-.05,2.19-.14,.66-.09,1.21-.19,1.64-.28v.85Zm1.49,3.19h-.96V.36h.96v3.92h1.56v.89h-1.56v5.83Z"/><path class="cls-4" d="M418.11,6.26h-9.74v-.8h9.74v.8Zm-1.31,4.36c0,.1-.02,.16-.05,.2-.04,.04-.1,.05-.2,.05h-6.62c-.1,0-.16-.02-.2-.05-.04-.04-.05-.1-.05-.2v-2.94c0-.1,.02-.16,.05-.2,.04-.04,.1-.05,.2-.05h6.62c.1,0,.16,.02,.2,.05,.04,.04,.05,.1,.05,.2v2.94Zm-.04-6.46c0,.1-.02,.16-.05,.2-.04,.04-.1,.05-.2,.05h-6.55c-.1,0-.16-.02-.2-.05-.04-.04-.05-.1-.05-.2V.5h.89V1.66h2.22V.5h.83V1.66h2.23V.5h.89v3.66Zm-3.92-.49v-1.31h-2.24v1.31h2.24Zm3,6.42v-1.88h-5.23v1.88h5.23Zm.04-6.42v-1.31h-2.26v1.31h2.26Z"/></g><circle class="cls-1" cx="6.29" cy="5.83" r="5.83"/><circle class="cls-2" cx="92.72" cy="5.83" r="5.83"/><circle class="cls-5" cx="186.15" cy="5.83" r="5.83"/><circle class="cls-3" cx="272.58" cy="5.83" r="5.83"/><circle class="cls-6" cx="366.79" cy="5.83" r="5.83"/></svg>