<?xml version="1.0" encoding="UTF-8"?><svg id="Layer_1" xmlns="http://www.w3.org/2000/svg" viewBox="0 0 70.41 69.96"><defs><style>.cls-1{fill:#fff;}.cls-2{fill:#90d74b;}.cls-3{fill:none;stroke:#f3f3f3;stroke-linecap:round;stroke-linejoin:round;stroke-width:4px;}</style></defs><g><path class="cls-2" d="M35.02,67.96C16.71,67.96,1.82,53.16,1.82,34.98S16.71,2,35.02,2s33.21,14.79,33.21,32.98-14.9,32.98-33.21,32.98Z"/><path class="cls-1" d="M35.02,4c17.21,0,31.21,13.9,31.21,30.98s-14,30.98-31.21,30.98S3.82,52.06,3.82,34.98,17.82,4,35.02,4M35.02,0C15.58,0-.18,15.66-.18,34.98s15.76,34.98,35.21,34.98,35.21-15.66,35.21-34.98S54.47,0,35.02,0h0Z"/></g><path class="cls-3" d="M54.1,37.85c0,10.54-8.54,19.08-19.08,19.08s-19.08-8.54-19.08-19.08"/><circle class="cls-1" cx="22.22" cy="25.48" r="4.22"/><circle class="cls-1" cx="48.19" cy="25.48" r="4.22"/></svg>