<?xml version="1.0" encoding="UTF-8"?><svg id="Layer_1" xmlns="http://www.w3.org/2000/svg" viewBox="0 0 70.41 69.96"><defs><style>.cls-1{fill:#fff;}.cls-2{fill:#8f9392;}.cls-3{fill:#f3f3f3;}</style></defs><g><path class="cls-2" d="M35.67,67.96c-18.33,0-33.25-14.79-33.25-32.98S17.33,2,35.67,2s33.25,14.79,33.25,32.98-14.92,32.98-33.25,32.98Z"/><path class="cls-1" d="M35.67,4c17.23,0,31.25,13.9,31.25,30.98s-14.02,30.98-31.25,30.98S4.42,52.06,4.42,34.98,18.44,4,35.67,4M35.67,0C16.2,0,.42,15.66,.42,34.98s15.78,34.98,35.25,34.98,35.25-15.66,35.25-34.98S55.13,0,35.67,0h0Z"/></g><rect class="cls-3" x="14.77" y="48.85" width="41.79" height="3.87" rx="1.82" ry="1.82"/><circle class="cls-1" cx="22.26" cy="25.48" r="4.22"/><circle class="cls-1" cx="48.24" cy="25.48" r="4.22"/></svg>