<?xml version="1.0" encoding="UTF-8"?><svg id="Layer_1" xmlns="http://www.w3.org/2000/svg" viewBox="0 0 70.41 69.96"><defs><style>.cls-1{fill:#f83b37;}.cls-2{fill:#fff;}.cls-3{fill:none;stroke:#f3f3f3;stroke-linecap:round;stroke-linejoin:round;stroke-width:4px;}</style></defs><g><path class="cls-1" d="M35.21,67.96c-18.31,0-33.21-14.79-33.21-32.98S16.9,2,35.21,2s33.21,14.79,33.21,32.98-14.9,32.98-33.21,32.98Z"/><path class="cls-2" d="M35.21,4c17.21,0,31.21,13.9,31.21,30.98s-14,30.98-31.21,30.98S4,52.06,4,34.98,18,4,35.21,4M35.21,0C15.76,0,0,15.66,0,34.98s15.76,34.98,35.21,34.98,35.21-15.66,35.21-34.98S54.65,0,35.21,0h0Z"/></g><path class="cls-3" d="M16.13,56.93c0-10.54,8.54-19.08,19.08-19.08s19.08,8.54,19.08,19.08"/><circle class="cls-2" cx="22.56" cy="25.48" r="4.22"/><circle class="cls-2" cx="48.53" cy="25.48" r="4.22"/></svg>