<?xml version="1.0" encoding="UTF-8"?><svg id="Layer_1" xmlns="http://www.w3.org/2000/svg" viewBox="0 0 70.41 69.96"><defs><style>.cls-1{fill:#fff;}.cls-2{fill:#fbae14;}.cls-3{fill:#f3f3f3;}</style></defs><g><path class="cls-2" d="M35.19,67.96C16.88,67.96,1.99,53.16,1.99,34.98S16.88,2,35.19,2s33.21,14.79,33.21,32.98-14.9,32.98-33.21,32.98Z"/><path class="cls-1" d="M35.19,4c17.21,0,31.21,13.9,31.21,30.98s-14,30.98-31.21,30.98S3.99,52.06,3.99,34.98,17.99,4,35.19,4M35.19,0C15.75,0-.01,15.66-.01,34.98s15.76,34.98,35.21,34.98,35.21-15.66,35.21-34.98S54.64,0,35.19,0h0Z"/></g><rect class="cls-3" x="14.3" y="48.85" width="41.79" height="3.87" rx="1.82" ry="1.82"/><circle class="cls-1" cx="22.45" cy="25.48" r="4.22"/><circle class="cls-1" cx="48.42" cy="25.48" r="4.22"/></svg>