<?xml version="1.0" encoding="UTF-8"?><svg id="Layer_1" xmlns="http://www.w3.org/2000/svg" viewBox="0 0 70.41 69.96"><defs><style>.cls-1{fill:#fff;}.cls-2{stroke:#f3f3f3;}.cls-2,.cls-3{fill:none;stroke-linecap:round;stroke-linejoin:round;stroke-width:4px;}.cls-4{fill:#39bce6;}.cls-3{stroke:#fff;}</style></defs><g><ellipse class="cls-4" cx="35.21" cy="34.98" rx="33.21" ry="32.98"/><path class="cls-1" d="M35.21,4c17.21,0,31.21,13.9,31.21,30.98s-14,30.98-31.21,30.98S4,52.06,4,34.98,18,4,35.21,4M35.21,0C15.76,0,0,15.66,0,34.98s15.76,34.98,35.21,34.98,35.21-15.66,35.21-34.98S54.65,0,35.21,0h0Z"/></g><path class="cls-2" d="M54.29,37.85c0,10.54-8.54,19.08-19.08,19.08s-19.08-8.54-19.08-19.08"/><path class="cls-3" d="M16.62,25.43c0-2.38,1.93-4.31,4.31-4.31s4.31,1.93,4.31,4.31"/><path class="cls-3" d="M45.67,25.43c0-2.38,1.93-4.31,4.31-4.31s4.31,1.93,4.31,4.31"/></svg>