<?xml version="1.0" encoding="UTF-8"?><svg id="Layer_1" xmlns="http://www.w3.org/2000/svg" xmlns:xlink="http://www.w3.org/1999/xlink" viewBox="0 0 196.46 10.8"><defs><style>.cls-1{fill:#2d2d2d;font-family:KoPubWorldDotumMedium, KoPubWorldDotum;font-size:4.58px;}.cls-2{fill:#444;}.cls-3{fill:url(#linear-gradient);}</style><linearGradient id="linear-gradient" x1="-645.47" y1="433.31" x2="-491.43" y2="433.31" gradientTransform="translate(687.44 -431.4)" gradientUnits="userSpaceOnUse"><stop offset="0" stop-color="#0036e9"/><stop offset=".03" stop-color="#003be9"/><stop offset=".08" stop-color="#004ce9"/><stop offset=".13" stop-color="#0068e9"/><stop offset=".19" stop-color="#008ee9"/><stop offset=".24" stop-color="#00b8e9"/><stop offset=".26" stop-color="#00bae2"/><stop offset=".29" stop-color="#00c1d0"/><stop offset=".33" stop-color="#00cdb2"/><stop offset=".36" stop-color="#0d8"/><stop offset=".41" stop-color="#00f253"/><stop offset=".43" stop-color="#00ff34"/><stop offset=".51" stop-color="#84ff24"/><stop offset=".57" stop-color="#dcff1a"/><stop offset=".59" stop-color="#ffff17"/><stop offset=".63" stop-color="#f9dc11"/><stop offset=".7" stop-color="#f0a607"/><stop offset=".76" stop-color="#eb8402"/><stop offset=".78" stop-color="#e97800"/><stop offset=".85" stop-color="#e65c11"/><stop offset=".95" stop-color="#e43d25"/><stop offset="1" stop-color="#e3312d"/></linearGradient></defs><g><path class="cls-2" d="M6.26,5.36H1.55v-.53H6.26v.53Zm-.6-.79c-.16-.03-.33-.07-.51-.13-.18-.06-.35-.13-.51-.22-.16-.09-.31-.18-.44-.28-.13-.1-.23-.2-.3-.31-.16,.23-.39,.42-.69,.57s-.66,.28-1.07,.37l-.38-.46c.22-.04,.44-.09,.65-.16,.21-.07,.41-.15,.58-.25,.17-.1,.31-.22,.41-.35,.1-.14,.15-.29,.15-.48v-.17h.71v.17c0,.17,.05,.33,.15,.47,.1,.14,.24,.26,.41,.36,.17,.11,.36,.19,.57,.26,.21,.07,.42,.12,.64,.15l-.38,.45Zm0,3.03c0,.06-.01,.1-.04,.13-.02,.02-.07,.03-.12,.03H2.29c-.06,0-.1-.01-.13-.03-.02-.02-.03-.06-.03-.13v-1.89h.63v.46h2.25v-.46h.65v1.89Zm-.65-.35v-.57H2.77v.57h2.25Z"/><path class="cls-2" d="M11.23,7.25H6.52v-.55h2.02v-1.18h-1.27c-.06,0-.1-.01-.12-.03-.02-.02-.03-.06-.03-.13V3.09c0-.06,.01-.1,.03-.12s.06-.04,.13-.04h3.41v.54h-2.91v1.5h2.96v.55h-1.52v1.18h2.03v.55Z"/></g><rect class="cls-3" x="41.97" y="0" width="154.05" height="3.81" rx="1.91" ry="1.91" transform="translate(237.98 3.81) rotate(180)"/><text class="cls-1" transform="translate(42.05 8.38) scale(.97 1)"><tspan x="0" y="0" xml:space="preserve">0%               30%               50%                 80%                 90%               100%</tspan></text></svg>