<?xml version="1.0" encoding="UTF-8"?><svg id="Layer_1" xmlns="http://www.w3.org/2000/svg" xmlns:xlink="http://www.w3.org/1999/xlink" viewBox="0 0 196.46 10.47"><defs><style>.cls-1{fill:#2d2d2d;font-family:KoPubWorldDotumMedium, KoPubWorldDotum;font-size:4.58px;}.cls-2{fill:#444;}.cls-3{fill:url(#linear-gradient);}</style><linearGradient id="linear-gradient" x1="-491.09" y1="335.36" x2="-645.13" y2="335.36" gradientTransform="translate(686.76 -333.46)" gradientUnits="userSpaceOnUse"><stop offset=".09" stop-color="#1b1dff"/><stop offset=".12" stop-color="#2022ff"/><stop offset=".17" stop-color="#3132ff"/><stop offset=".23" stop-color="#4d4cff"/><stop offset=".28" stop-color="#7371ff"/><stop offset=".31" stop-color="#8481ff"/><stop offset=".34" stop-color="#8a87ff"/><stop offset=".38" stop-color="#9c99ff"/><stop offset=".42" stop-color="#b9b7ff"/><stop offset=".47" stop-color="#e1e1ff"/><stop offset=".5" stop-color="#f9f9ff"/><stop offset=".56" stop-color="#fbfb90"/><stop offset=".62" stop-color="#fefe39"/><stop offset=".64" stop-color="#ffff17"/><stop offset=".68" stop-color="#f9dc11"/><stop offset=".74" stop-color="#f0a607"/><stop offset=".79" stop-color="#eb8402"/><stop offset=".81" stop-color="#e97800"/><stop offset=".87" stop-color="#e65c11"/><stop offset=".95" stop-color="#e43d25"/><stop offset="1" stop-color="#e3312d"/></linearGradient></defs><g><path class="cls-2" d="M6.6,5.93H1.89v-.54H3.91v-.52c-.5-.03-.88-.15-1.15-.34s-.39-.44-.39-.73c0-.32,.17-.57,.5-.78,.34-.2,.8-.3,1.38-.3s1.03,.1,1.37,.3c.33,.2,.5,.46,.5,.78,0,.3-.14,.54-.41,.73-.27,.19-.65,.3-1.13,.34v.52h2.02v.54Zm-.43,1.83H2.63c-.06,0-.1-.01-.12-.03-.02-.02-.03-.06-.03-.13v-1.35h.65v.96h3.04v.55Zm-1.09-3.54c.11-.05,.19-.11,.25-.18,.06-.07,.09-.15,.09-.24s-.03-.17-.09-.25c-.06-.07-.14-.13-.24-.18s-.23-.09-.37-.11c-.14-.03-.3-.04-.47-.04-.35,0-.64,.05-.85,.15-.21,.1-.32,.25-.32,.43,0,.09,.03,.17,.09,.24s.14,.13,.24,.18,.23,.08,.37,.11c.14,.03,.3,.04,.47,.04s.33-.01,.47-.04,.27-.06,.37-.11Z"/><path class="cls-2" d="M11.58,7.29H6.87v-.55h2.02v-1.18h-1.27c-.06,0-.1-.01-.12-.03-.02-.02-.03-.06-.03-.13V3.14c0-.06,.01-.1,.03-.12s.06-.04,.13-.04h3.41v.54h-2.91v1.5h2.96v.55h-1.52v1.18h2.03v.55Z"/></g><rect class="cls-3" x="41.63" y="0" width="154.05" height="3.81" rx="1.91" ry="1.91" transform="translate(237.3 3.81) rotate(-180)"/><text class="cls-1" transform="translate(42.42 9.33) scale(.97 1)"><tspan x="0" y="0" xml:space="preserve">-20℃            -10℃           0℃           10℃            20℃            30℃           40℃</tspan></text></svg>