<?xml version="1.0" encoding="UTF-8"?><svg id="Layer_1" xmlns="http://www.w3.org/2000/svg" xmlns:xlink="http://www.w3.org/1999/xlink" viewBox="0 0 196.48 10.64"><defs><style>.cls-1{fill:#4f4f4f;font-family:KoPubWorldDotumMedium, KoPubWorldDotum;font-size:4.37px;letter-spacing:-.01em;}.cls-2{fill:#444;}.cls-3{fill:url(#linear-gradient);}</style><linearGradient id="linear-gradient" x1="41.93" y1="1.93" x2="195.97" y2="1.93" gradientUnits="userSpaceOnUse"><stop offset="0" stop-color="#0036e9"/><stop offset=".03" stop-color="#003be9"/><stop offset=".08" stop-color="#004ce9"/><stop offset=".13" stop-color="#0068e9"/><stop offset=".19" stop-color="#008ee9"/><stop offset=".24" stop-color="#00b8e9"/><stop offset=".26" stop-color="#00bae2"/><stop offset=".29" stop-color="#00c1d0"/><stop offset=".33" stop-color="#00cdb2"/><stop offset=".36" stop-color="#0d8"/><stop offset=".41" stop-color="#00f253"/><stop offset=".43" stop-color="#00ff34"/><stop offset=".51" stop-color="#84ff24"/><stop offset=".57" stop-color="#dcff1a"/><stop offset=".59" stop-color="#ffff17"/><stop offset=".63" stop-color="#f9dc11"/><stop offset=".7" stop-color="#f0a607"/><stop offset=".76" stop-color="#eb8402"/><stop offset=".78" stop-color="#e97800"/><stop offset=".85" stop-color="#e65c11"/><stop offset=".95" stop-color="#e43d25"/><stop offset="1" stop-color="#e3312d"/></linearGradient></defs><g><path class="cls-2" d="M5.79,7.46H1.07v-.55H3.09v-.98h.67v.98h2.03v.55Zm-.63-1.33c-.86-.21-1.44-.53-1.74-.98-.17,.23-.4,.43-.68,.6-.28,.17-.63,.3-1.05,.39l-.45-.51c1.06-.21,1.66-.6,1.8-1.15H1.54v-.54h3.76v.54h-1.5c.16,.56,.76,.95,1.8,1.15l-.45,.51Zm-.68-2.61H2.37v-.53h2.1v.53Z"/><path class="cls-2" d="M8.87,6.6c0,.06-.01,.1-.04,.13s-.07,.03-.12,.03h-2.1c-.06,0-.1-.01-.12-.03s-.03-.06-.03-.12V3.37c0-.06,.01-.1,.03-.12,.02-.02,.06-.04,.13-.04h2.1c.11,0,.16,.05,.16,.16v3.23Zm-.64-.38V3.75h-1.14v2.47h1.14Zm2.12,1.8h-.64V2.91h.64v5.11Z"/><path class="cls-2" d="M13.18,6.91c-.19-.16-.37-.35-.52-.56-.15-.21-.26-.43-.33-.64-.03,.11-.07,.23-.13,.35s-.13,.24-.21,.35c-.08,.12-.18,.23-.27,.34-.1,.11-.2,.21-.3,.29l-.55-.39c.21-.15,.39-.31,.53-.5,.14-.18,.26-.38,.35-.59,.09-.21,.15-.44,.19-.68,.04-.24,.06-.49,.06-.76v-1.02h.68v1.06c0,.54,.07,1,.23,1.38s.41,.7,.77,.96l-.5,.41Zm1.32,.87h-.63v-2.79h-.79v-.6h.79v-1.39h.63V7.78Zm1,.24h-.62V2.91h.62v5.11Z"/><path class="cls-2" d="M20.33,6.6h-.65v-1.99h-.92v.87c0,.06-.01,.1-.04,.13-.02,.02-.07,.03-.12,.03h-2.08c-.06,0-.1-.01-.12-.03s-.03-.06-.03-.12V3.27c0-.06,.01-.1,.03-.12,.02-.02,.06-.04,.13-.04h2.08c.11,0,.16,.05,.16,.16v.78h.92v-1.15h.65v3.69Zm.1,1.32h-3.39c-.06,0-.1-.01-.12-.03-.02-.02-.03-.06-.03-.13v-1.58h.65v1.19h2.89v.55Zm-2.31-2.82v-1.44h-1.14v1.44h1.14Z"/><path class="cls-2" d="M23.89,6.94c-.27-.18-.52-.38-.73-.61-.21-.23-.37-.47-.46-.72-.1,.27-.26,.53-.49,.79-.12,.13-.24,.26-.36,.37-.12,.11-.24,.21-.36,.3l-.53-.43c.21-.13,.4-.27,.57-.43,.17-.16,.32-.35,.44-.55s.21-.43,.28-.68c.07-.25,.1-.52,.1-.81v-.42h-1.03v-.54h2.76v.54h-1.04v.45c0,.51,.1,.95,.31,1.34s.54,.71,1,.97l-.46,.44Zm1.5,1.08h-.65V2.91h.65v5.11Z"/><path class="cls-2" d="M31.94,5.86h-.64v-1.35h-.91v.91c0,.06-.01,.1-.04,.13-.02,.02-.07,.03-.12,.03h-2.1c-.06,0-.1-.01-.12-.03-.02-.02-.03-.06-.03-.13V3.06h.64v.74h1.14v-.74h.64v.9h.91v-1.05h.64v2.95Zm0,1.94c0,.06-.01,.1-.04,.13-.02,.02-.07,.03-.12,.03h-3.11c-.06,0-.1-.01-.13-.03s-.03-.06-.03-.13v-1.58c0-.06,.01-.1,.03-.12,.02-.02,.06-.04,.13-.04h3.11c.11,0,.16,.05,.16,.16v1.58Zm-2.19-2.75v-.7h-1.14v.7h1.14Zm1.55,2.39v-.84h-2.15v.84h2.15Z"/><path class="cls-2" d="M35.16,6.68c-.06,0-.13,.02-.22,.03s-.19,.03-.3,.04c-.11,.01-.23,.02-.37,.03s-.27,.01-.42,.01h-.74c-.06,0-.1,0-.13-.03-.02-.02-.03-.06-.03-.13v-1.76c0-.06,.01-.1,.03-.12,.02-.02,.06-.04,.13-.04h.89v-1h-1.05v-.55h1.53c.11,0,.16,.05,.16,.16v1.76c0,.06-.01,.1-.04,.13-.02,.02-.07,.03-.12,.03h-.9v.99h.5c.08,0,.18,0,.27-.01s.2-.01,.29-.03c.2-.02,.37-.04,.5-.07v.54Zm.86,1.1h-.63v-2.09h-.61v-.57h.61v-.7h-.61v-.56h.61v-.86h.63V7.78Zm.99,.23h-.63V2.91h.63v5.1Z"/></g><rect class="cls-3" x="41.93" y=".01" width="154.05" height="3.82" rx="1.91" ry="1.91"/><text class="cls-1" transform="translate(41.85 9.26)"><tspan x="0" y="0" xml:space="preserve">좋음(0~15)                  보통(16~35)                  나쁨(36~75)                  매우나쁨(76~)</tspan></text></svg>