<?xml version="1.0" encoding="UTF-8"?><svg id="Layer_1" xmlns="http://www.w3.org/2000/svg" viewBox="0 0 196.46 5.46"><defs><style>.cls-1{fill:#8c9091;}.cls-2{fill:#39b8df;}.cls-3{fill:#f97b47;}.cls-4{fill:#444;}.cls-5{fill:#91cf56;}.cls-6{fill:#f93f3e;}</style></defs><g><path class="cls-4" d="M9.41,3.74s0,.08-.03,.09c-.02,.02-.05,.03-.09,.03h-2.02s-.08,0-.09-.03-.03-.05-.03-.09V.58s0-.08,.03-.09c.02-.02,.05-.03,.09-.03h2.02s.08,0,.09,.03,.03,.05,.03,.09V3.74Zm-.44-.27V.85h-1.37V3.47h1.37Zm1.89,1.67h-.44V.17h.44V5.15Z"/><path class="cls-4" d="M16.2,3.31h-2.03v1.85h-.46v-1.85h-2.07v-.38h4.56v.38Zm-.51-.93c-.18-.05-.36-.1-.54-.18-.18-.07-.35-.16-.51-.26-.16-.1-.3-.21-.43-.34-.13-.12-.22-.26-.28-.41-.08,.16-.19,.3-.31,.42s-.27,.24-.43,.33c-.16,.1-.32,.18-.49,.25-.17,.07-.35,.13-.53,.18l-.31-.35c1.21-.29,1.82-.78,1.82-1.48V.29h.49v.26c0,.2,.05,.38,.15,.54s.24,.3,.4,.42c.17,.12,.36,.23,.58,.31,.22,.09,.44,.15,.67,.2l-.28,.35Z"/><path class="cls-4" d="M19.33,2.94c-.11-.05-.22-.11-.34-.19-.12-.08-.23-.16-.35-.26-.11-.1-.22-.21-.32-.33-.1-.12-.18-.24-.24-.38-.05,.15-.12,.28-.21,.41-.09,.13-.19,.25-.3,.36-.11,.11-.23,.21-.36,.3-.13,.09-.25,.17-.37,.24l-.34-.31c.18-.09,.36-.19,.52-.31,.16-.12,.31-.26,.43-.42,.12-.16,.22-.33,.29-.52,.07-.19,.11-.39,.11-.62V.29h.46V.88c0,.21,.04,.41,.11,.59,.07,.18,.17,.34,.29,.49,.12,.15,.26,.27,.42,.38,.16,.11,.32,.19,.49,.25l-.29,.35Zm1.52,2.11h-3.25s-.08,0-.09-.03-.03-.05-.03-.09v-1.47h.45v1.21h2.92v.38Zm-.15-1.23h-.44V.17h.44V3.82Z"/><path class="cls-4" d="M52.07,2.52h-4.56v-.35h2.06v-.55h.46v.55h2.05v.35Zm-.51-.69c-.19-.03-.38-.07-.55-.11-.18-.05-.35-.1-.5-.17-.16-.06-.3-.14-.42-.23-.12-.09-.22-.19-.29-.31-.17,.23-.42,.41-.75,.54-.16,.06-.32,.12-.49,.17-.17,.05-.35,.09-.54,.12l-.26-.35c.21-.03,.41-.06,.6-.1,.19-.04,.37-.1,.53-.17,.16-.06,.29-.14,.4-.24,.11-.09,.19-.21,.24-.34h-1.44V.3h3.43v.35h-1.44c.04,.13,.11,.24,.22,.33s.25,.18,.41,.24c.16,.07,.33,.12,.53,.17,.19,.05,.4,.08,.6,.11l-.26,.33Zm.13,1.97h-3.8v-.33h3.8v.33Zm-.26,.79c0,.22-.14,.39-.41,.48s-.69,.15-1.24,.15c-1.1,0-1.65-.21-1.65-.63,0-.19,.14-.34,.42-.44,.28-.1,.69-.15,1.24-.15s.95,.05,1.23,.15c.28,.1,.42,.25,.42,.44Zm-.82,.24c.21-.05,.31-.13,.31-.24,0-.1-.11-.17-.33-.22-.12-.03-.24-.05-.38-.06-.13-.01-.28-.02-.44-.02-.36,0-.64,.03-.84,.08-.2,.05-.3,.13-.3,.22,0,.1,.1,.18,.3,.24,.2,.05,.48,.08,.84,.08s.65-.02,.83-.07Zm.2-1.64h-2.07v-.33h2.07v.33Z"/><path class="cls-4" d="M56.97,2.85h-4.56v-.38h4.56v.38Zm-.53-1.72c0,.3-.14,.54-.43,.71-.28,.17-.72,.26-1.32,.26s-1.03-.09-1.32-.26c-.29-.17-.43-.41-.43-.71s.15-.54,.44-.72,.73-.28,1.31-.28,1.01,.09,1.3,.28,.44,.42,.44,.72Zm-.08,3.85s0,.08-.03,.09-.05,.03-.09,.03h-3.1s-.08,0-.09-.03-.03-.05-.03-.09v-1.47s0-.08,.03-.09c.02-.02,.05-.03,.09-.03h3.1s.08,0,.09,.03c.02,.02,.03,.05,.03,.09v1.47Zm-.74-3.38c.23-.1,.35-.26,.35-.47,0-.1-.03-.2-.09-.28-.06-.08-.15-.15-.26-.21-.11-.06-.24-.1-.4-.13s-.33-.04-.52-.04c-.39,0-.7,.06-.93,.17-.23,.11-.35,.27-.35,.49s.11,.37,.34,.47c.23,.1,.54,.15,.94,.15s.69-.05,.92-.15Zm.29,3.13v-.97h-2.45v.97h2.45Z"/><path class="cls-4" d="M96.1,4.53h-4.57v-.39h2.05v-1.1h-1.31s-.08,0-.09-.03c-.02-.02-.03-.05-.03-.09V.37h.44v.87h2.44V.37h.44V2.92s0,.08-.03,.09c-.02,.02-.05,.03-.09,.03h-1.32v1.1h2.06v.39Zm-1.07-1.88V1.62h-2.44v1.03h2.44Z"/><path class="cls-4" d="M100.99,3.14h-4.56v-.37h2.03v-.52h-1.3s-.08,0-.09-.03-.03-.05-.03-.09V.4s0-.08,.03-.09c.02-.02,.05-.03,.09-.03h3.23v.34h-2.9v.48h2.89v.33h-2.89v.48h2.95v.34h-1.5v.52h2.06v.37Zm-2.28,.31c.57,0,1.01,.09,1.31,.27,.31,.17,.46,.38,.46,.63s-.15,.46-.46,.63c-.31,.18-.75,.26-1.31,.26s-1.02-.09-1.33-.26c-.3-.17-.46-.38-.46-.63s.15-.46,.46-.63c.3-.18,.75-.27,1.33-.27Zm1.28,.9c0-.16-.12-.3-.36-.4-.21-.1-.52-.16-.92-.16s-.72,.05-.93,.16c-.24,.1-.36,.24-.36,.4s.12,.3,.35,.4c.21,.1,.52,.16,.93,.16,.18,0,.35-.01,.51-.04,.16-.03,.29-.06,.4-.11,.11-.05,.2-.11,.27-.18s.1-.15,.1-.23Z"/><path class="cls-4" d="M135.52,3.66c-.11,.03-.23,.05-.38,.08-.14,.02-.3,.05-.47,.06-.17,.02-.34,.03-.51,.04-.17,.01-.34,.02-.51,.02h-.89s-.08,0-.09-.03c-.02-.02-.03-.05-.03-.09V.38h.45V3.46h.63c.37,0,.72-.02,1.03-.06,.31-.04,.56-.09,.77-.13v.4Zm.7,1.49h-.45V.17h.45v1.84h.73v.42h-.73v2.73Z"/><path class="cls-4" d="M141.76,2.94h-4.56v-.38h4.56v.38Zm-.61,2.04s0,.08-.03,.09c-.02,.02-.05,.03-.09,.03h-3.1s-.08,0-.09-.03c-.02-.02-.03-.05-.03-.09v-1.38s0-.08,.03-.09c.02-.02,.05-.03,.09-.03h3.1s.08,0,.09,.03c.02,.02,.03,.05,.03,.09v1.38Zm-.02-3.02s0,.08-.03,.09c-.02,.02-.05,.03-.09,.03h-3.07s-.08,0-.09-.03c-.02-.02-.03-.05-.03-.09V.24h.42V.78h1.04V.24h.39V.78h1.04V.24h.42V1.95Zm-1.84-.23v-.61h-1.05v.61h1.05Zm1.4,3.01v-.88h-2.45v.88h2.45Zm.02-3.01v-.61h-1.06v.61h1.06Z"/><path class="cls-4" d="M178.47,3.76s0,.08-.03,.09c-.02,.02-.05,.03-.09,.03h-1.55s-.08,0-.09-.03c-.02-.02-.03-.05-.03-.09V.61s0-.08,.03-.09c.02-.02,.05-.03,.09-.03h1.55s.08,0,.09,.03c.02,.02,.03,.05,.03,.09V3.76Zm-.42-.26V.87h-.93V3.49h.93Zm2.48,1.66h-.43V2.3h-.65v2.61h-.43V.25h.43V1.87h.65V.17h.43V5.15Z"/><path class="cls-4" d="M185.78,3.4h-2.05v1.76h-.46v-1.76h-2.06v-.38h4.56v.38Zm-4.05-2.01c0-.35,.16-.63,.47-.84,.31-.22,.74-.33,1.3-.33,.27,0,.52,.03,.74,.08,.22,.05,.4,.13,.56,.23,.15,.1,.27,.22,.35,.37,.08,.14,.12,.31,.12,.49,0,.35-.16,.63-.47,.84-.31,.21-.74,.31-1.3,.31-.27,0-.52-.03-.74-.08-.22-.05-.4-.13-.56-.23-.31-.21-.47-.49-.47-.84Zm3.06,0c0-.26-.12-.46-.36-.59-.24-.14-.55-.21-.93-.21-.19,0-.37,.02-.53,.05-.16,.04-.3,.09-.41,.15s-.2,.15-.26,.25c-.06,.1-.09,.21-.09,.34s.03,.24,.1,.34c.07,.1,.16,.18,.27,.25s.25,.12,.41,.15c.16,.03,.33,.05,.51,.05,.37,0,.68-.07,.92-.2,.25-.14,.37-.33,.37-.58Z"/><path class="cls-4" d="M189.35,3.66c-.11,.03-.23,.05-.38,.08-.14,.02-.3,.05-.47,.06-.17,.02-.34,.03-.51,.04-.17,.01-.34,.02-.51,.02h-.89s-.08,0-.09-.03c-.02-.02-.03-.05-.03-.09V.38h.45V3.46h.63c.37,0,.72-.02,1.03-.06,.31-.04,.56-.09,.77-.13v.4Zm.7,1.49h-.45V.17h.45v1.84h.73v.42h-.73v2.73Z"/><path class="cls-4" d="M195.58,2.94h-4.56v-.38h4.56v.38Zm-.61,2.04s0,.08-.03,.09c-.02,.02-.05,.03-.09,.03h-3.1s-.08,0-.09-.03c-.02-.02-.03-.05-.03-.09v-1.38s0-.08,.03-.09c.02-.02,.05-.03,.09-.03h3.1s.08,0,.09,.03c.02,.02,.03,.05,.03,.09v1.38Zm-.02-3.02s0,.08-.03,.09c-.02,.02-.05,.03-.09,.03h-3.07s-.08,0-.09-.03c-.02-.02-.03-.05-.03-.09V.24h.42V.78h1.04V.24h.39V.78h1.04V.24h.42V1.95Zm-1.84-.23v-.61h-1.05v.61h1.05Zm1.4,3.01v-.88h-2.45v.88h2.45Zm.02-3.01v-.61h-1.06v.61h1.06Z"/></g><circle class="cls-1" cx="2.73" cy="2.73" r="2.73"/><circle class="cls-2" cx="43.2" cy="2.73" r="2.73"/><circle class="cls-5" cx="86.96" cy="2.73" r="2.73"/><circle class="cls-3" cx="127.43" cy="2.73" r="2.73"/><circle class="cls-6" cx="171.55" cy="2.73" r="2.73"/></svg>