<?xml version="1.0" encoding="UTF-8"?><svg id="Layer_1" xmlns="http://www.w3.org/2000/svg" xmlns:xlink="http://www.w3.org/1999/xlink" viewBox="0 0 196.48 10.59"><defs><style>.cls-1{fill:#444;}.cls-2{fill:url(#linear-gradient);}</style><linearGradient id="linear-gradient" x1="41.85" y1="1.96" x2="195.89" y2="1.96" gradientUnits="userSpaceOnUse"><stop offset="0" stop-color="#0036e9"/><stop offset=".03" stop-color="#003be9"/><stop offset=".08" stop-color="#004ce9"/><stop offset=".13" stop-color="#0068e9"/><stop offset=".19" stop-color="#008ee9"/><stop offset=".24" stop-color="#00b8e9"/><stop offset=".26" stop-color="#00bae2"/><stop offset=".29" stop-color="#00c1d0"/><stop offset=".33" stop-color="#00cdb2"/><stop offset=".36" stop-color="#0d8"/><stop offset=".41" stop-color="#00f253"/><stop offset=".43" stop-color="#00ff34"/><stop offset=".51" stop-color="#84ff24"/><stop offset=".57" stop-color="#dcff1a"/><stop offset=".59" stop-color="#ffff17"/><stop offset=".63" stop-color="#f9dc11"/><stop offset=".7" stop-color="#f0a607"/><stop offset=".76" stop-color="#eb8402"/><stop offset=".78" stop-color="#e97800"/><stop offset=".85" stop-color="#e65c11"/><stop offset=".95" stop-color="#e43d25"/><stop offset="1" stop-color="#e3312d"/></linearGradient></defs><g><path class="cls-1" d="M45.8,7.18h-3.59v-.28h1.62v-.44h.36v.44h1.61v.28Zm-.4-.56c-.15-.02-.3-.05-.44-.09-.14-.04-.27-.08-.4-.14-.12-.05-.23-.11-.33-.19-.1-.07-.17-.15-.23-.25-.14,.19-.33,.33-.59,.44-.12,.05-.25,.1-.39,.14-.13,.04-.28,.07-.43,.09l-.21-.28c.16-.02,.32-.05,.47-.08,.15-.04,.29-.08,.42-.14,.12-.05,.23-.12,.32-.19,.09-.08,.15-.17,.19-.27h-1.14v-.28h2.7v.28h-1.14c.03,.1,.09,.19,.17,.27s.19,.14,.32,.2c.12,.05,.26,.1,.42,.14,.15,.04,.31,.07,.47,.09l-.2,.27Zm.11,1.6h-2.99v-.27h2.99v.27Zm-.2,.65c0,.18-.11,.31-.32,.39s-.54,.12-.97,.12c-.87,0-1.3-.17-1.3-.51,0-.16,.11-.28,.33-.36,.22-.08,.54-.13,.97-.13s.74,.04,.97,.13c.22,.08,.33,.2,.33,.36Zm-.65,.2c.16-.04,.24-.11,.24-.2,0-.08-.09-.14-.26-.18-.09-.02-.19-.04-.3-.05-.11-.01-.22-.02-.34-.02-.29,0-.51,.02-.66,.07-.16,.04-.23,.1-.23,.18,0,.09,.08,.15,.23,.19,.16,.04,.38,.06,.66,.06s.51-.02,.65-.06Zm.16-1.34h-1.63v-.27h1.63v.27Z"/><path class="cls-1" d="M49.66,7.44h-3.59v-.31h3.59v.31Zm-.42-1.4c0,.25-.11,.44-.34,.58-.22,.14-.57,.21-1.04,.21s-.81-.07-1.04-.21c-.23-.14-.34-.33-.34-.58s.12-.44,.35-.59,.58-.22,1.03-.22,.79,.08,1.03,.23,.35,.35,.35,.58Zm-.07,3.14s0,.06-.02,.08-.04,.02-.07,.02h-2.44s-.06,0-.07-.02-.02-.04-.02-.08v-1.19s0-.06,.02-.08c.01-.01,.04-.02,.07-.02h2.44s.06,0,.07,.02c.01,.01,.02,.04,.02,.08v1.19Zm-.58-2.75c.18-.08,.27-.21,.27-.38,0-.09-.02-.16-.07-.23-.05-.07-.12-.12-.2-.17-.09-.05-.19-.08-.31-.1s-.26-.03-.41-.03c-.3,0-.55,.05-.73,.14-.18,.09-.27,.22-.27,.4s.09,.3,.27,.38c.18,.08,.42,.12,.74,.12s.54-.04,.72-.12Zm.23,2.55v-.79h-1.93v.79h1.93Z"/><path class="cls-1" d="M50.96,9.47c-.14-.15-.27-.31-.38-.49-.11-.18-.2-.36-.28-.55-.08-.19-.14-.38-.18-.58s-.06-.39-.06-.57,.02-.38,.06-.57c.04-.2,.1-.39,.18-.58s.17-.37,.28-.55c.11-.18,.24-.34,.38-.49h.27c-.27,.36-.46,.73-.59,1.1s-.18,.74-.18,1.1,.06,.73,.18,1.1,.32,.74,.59,1.1h-.27Z"/><path class="cls-1" d="M53.28,8.39c-.08,.17-.19,.3-.33,.41-.14,.11-.32,.16-.54,.16s-.39-.05-.53-.16c-.14-.11-.24-.24-.32-.41s-.13-.36-.15-.57c-.03-.21-.04-.42-.04-.64s.01-.43,.04-.64c.03-.21,.08-.41,.15-.58,.08-.17,.18-.31,.32-.41,.14-.11,.31-.16,.53-.16s.4,.05,.54,.16c.14,.11,.25,.24,.33,.41,.08,.17,.13,.36,.16,.58,.03,.21,.04,.43,.04,.64s-.01,.43-.04,.64-.08,.4-.16,.57Zm-.6,.17c.1-.06,.17-.15,.23-.26,.06-.11,.1-.23,.13-.36,.03-.13,.05-.26,.06-.4,0-.13,.01-.26,.01-.37,0-.13,0-.28-.02-.45-.01-.17-.05-.33-.09-.48s-.12-.28-.21-.39c-.09-.11-.22-.16-.38-.16s-.28,.05-.37,.16c-.09,.11-.16,.23-.2,.39s-.07,.31-.09,.48c-.01,.17-.02,.32-.02,.45,0,.09,0,.18,0,.28,0,.1,.01,.21,.03,.32,.01,.11,.04,.21,.07,.32,.03,.1,.07,.19,.12,.27s.11,.14,.19,.19c.07,.05,.16,.07,.27,.07s.2-.02,.27-.07Z"/><path class="cls-1" d="M55.8,7.01c-.04,.16-.11,.3-.21,.4s-.22,.15-.37,.15c-.09,0-.16-.01-.23-.04-.07-.03-.13-.07-.21-.13-.08-.07-.15-.12-.2-.15-.06-.04-.12-.05-.18-.05-.09,0-.16,.03-.21,.09-.05,.06-.11,.14-.15,.26l-.2-.12c.04-.15,.11-.27,.21-.37,.1-.1,.22-.15,.36-.15,.09,0,.16,.01,.23,.04,.07,.03,.13,.07,.21,.13,.08,.07,.15,.12,.2,.15,.06,.04,.12,.05,.18,.05,.09,0,.17-.03,.22-.1,.05-.07,.11-.16,.15-.28l.2,.12Z"/><path class="cls-1" d="M56.47,7.97c.05,.45,.28,.67,.7,.67,.22,0,.39-.06,.52-.18,.13-.12,.19-.29,.19-.51,0-.11-.02-.21-.06-.29-.04-.08-.1-.15-.16-.2-.07-.05-.15-.09-.23-.12-.09-.03-.18-.04-.27-.04h-.18s-.05,0-.06-.01c0,0-.01-.03-.01-.06v-.17s0-.06,.01-.07c0-.01,.03-.02,.06-.02h.15c.09,0,.18-.02,.26-.04,.08-.02,.16-.06,.22-.11,.06-.05,.11-.11,.15-.18,.04-.07,.06-.16,.06-.27,0-.2-.06-.34-.18-.45s-.28-.15-.46-.15c-.39,0-.61,.2-.65,.6h-.35c0-.14,.03-.27,.08-.38,.05-.11,.12-.21,.21-.29,.09-.08,.19-.14,.32-.18,.12-.04,.26-.06,.41-.06,.13,0,.26,.02,.38,.05,.12,.04,.22,.09,.31,.16,.09,.07,.16,.17,.22,.28,.05,.11,.08,.25,.08,.4,0,.1-.02,.19-.05,.28s-.07,.17-.13,.24c-.06,.07-.13,.13-.21,.18-.08,.05-.17,.08-.27,.1,.11,.02,.21,.05,.3,.1,.09,.05,.16,.11,.23,.18,.06,.07,.11,.16,.15,.26,.04,.1,.05,.2,.05,.31,0,.17-.03,.32-.09,.44-.06,.12-.14,.22-.24,.3-.1,.08-.21,.14-.34,.17-.13,.04-.26,.05-.4,.05-.16,0-.3-.02-.43-.07-.13-.04-.23-.11-.32-.19-.09-.09-.16-.19-.21-.31-.05-.12-.08-.26-.08-.41h.35Z"/><path class="cls-1" d="M60.59,8.39c-.08,.17-.19,.3-.33,.41-.14,.11-.32,.16-.54,.16s-.39-.05-.53-.16c-.14-.11-.24-.24-.32-.41s-.13-.36-.15-.57c-.03-.21-.04-.42-.04-.64s.01-.43,.04-.64c.03-.21,.08-.41,.15-.58,.08-.17,.18-.31,.32-.41,.14-.11,.31-.16,.53-.16s.4,.05,.54,.16c.14,.11,.25,.24,.33,.41,.08,.17,.13,.36,.16,.58,.03,.21,.04,.43,.04,.64s-.01,.43-.04,.64-.08,.4-.16,.57Zm-.6,.17c.1-.06,.17-.15,.23-.26,.06-.11,.1-.23,.13-.36,.03-.13,.05-.26,.06-.4,0-.13,.01-.26,.01-.37,0-.13,0-.28-.02-.45-.01-.17-.05-.33-.09-.48s-.12-.28-.21-.39c-.09-.11-.22-.16-.38-.16s-.28,.05-.37,.16c-.09,.11-.16,.23-.2,.39s-.07,.31-.09,.48c-.01,.17-.02,.32-.02,.45,0,.09,0,.18,0,.28,0,.1,.01,.21,.03,.32,.01,.11,.04,.21,.07,.32,.03,.1,.07,.19,.12,.27s.11,.14,.19,.19c.07,.05,.16,.07,.27,.07s.2-.02,.27-.07Z"/><path class="cls-1" d="M60.96,9.47c.27-.36,.46-.73,.59-1.1,.12-.37,.18-.74,.18-1.1s-.06-.73-.18-1.1c-.12-.37-.32-.74-.59-1.1h.27c.14,.15,.27,.32,.38,.49,.11,.18,.2,.36,.28,.55s.14,.38,.18,.58c.04,.2,.06,.39,.06,.57s-.02,.38-.06,.57-.1,.39-.18,.58c-.08,.19-.17,.37-.28,.55-.11,.18-.24,.34-.38,.49h-.27Z"/></g><g><path class="cls-1" d="M86.96,8.81h-3.6v-.32h1.61v-.9h-1.03s-.06,0-.07-.02c-.01-.01-.02-.04-.02-.08v-2.07h.35v.71h1.92v-.71h.35v2.07s0,.06-.02,.08c-.01,.01-.04,.02-.07,.02h-1.04v.9h1.62v.32Zm-.84-1.53v-.84h-1.92v.84h1.92Z"/><path class="cls-1" d="M90.81,7.69h-3.58v-.3h1.6v-.43h-1.03s-.06,0-.07-.02-.02-.04-.02-.08v-1.42s0-.06,.02-.08c.01-.01,.04-.02,.07-.02h2.54v.27h-2.28v.39h2.27v.27h-2.27v.39h2.32v.28h-1.18v.43h1.62v.3Zm-1.79,.25c.45,0,.8,.07,1.03,.22,.24,.14,.36,.31,.36,.52s-.12,.38-.36,.52c-.24,.14-.59,.22-1.03,.22s-.8-.07-1.04-.22c-.24-.14-.36-.31-.36-.52s.12-.37,.36-.52c.24-.15,.59-.22,1.04-.22Zm1.01,.74c0-.13-.09-.24-.28-.33-.17-.09-.41-.13-.72-.13s-.57,.04-.73,.13c-.19,.09-.28,.2-.28,.33s.09,.24,.28,.32c.17,.09,.41,.13,.73,.13,.14,0,.28-.01,.4-.03,.12-.02,.23-.05,.32-.09,.09-.04,.16-.09,.21-.14s.08-.12,.08-.19Z"/><path class="cls-1" d="M92.11,9.47c-.14-.15-.27-.31-.38-.49-.11-.18-.2-.36-.28-.55-.08-.19-.14-.38-.18-.58s-.06-.39-.06-.57,.02-.38,.06-.57c.04-.2,.1-.39,.18-.58s.17-.37,.28-.55c.11-.18,.24-.34,.38-.49h.27c-.27,.36-.46,.73-.59,1.1s-.18,.74-.18,1.1,.06,.73,.18,1.1,.32,.74,.59,1.1h-.27Z"/><path class="cls-1" d="M92.8,7.97c.05,.45,.28,.67,.7,.67,.22,0,.39-.06,.52-.18,.13-.12,.19-.29,.19-.51,0-.11-.02-.21-.06-.29-.04-.08-.1-.15-.16-.2-.07-.05-.15-.09-.23-.12-.09-.03-.18-.04-.27-.04h-.18s-.05,0-.06-.01c0,0-.01-.03-.01-.06v-.17s0-.06,.01-.07c0-.01,.03-.02,.06-.02h.15c.09,0,.18-.02,.26-.04,.08-.02,.16-.06,.22-.11,.06-.05,.11-.11,.15-.18,.04-.07,.06-.16,.06-.27,0-.2-.06-.34-.18-.45s-.28-.15-.46-.15c-.39,0-.61,.2-.65,.6h-.35c0-.14,.03-.27,.08-.38,.05-.11,.12-.21,.21-.29,.09-.08,.19-.14,.32-.18,.12-.04,.26-.06,.41-.06,.13,0,.26,.02,.38,.05,.12,.04,.22,.09,.31,.16,.09,.07,.16,.17,.22,.28,.05,.11,.08,.25,.08,.4,0,.1-.02,.19-.05,.28s-.07,.17-.13,.24c-.06,.07-.13,.13-.21,.18-.08,.05-.17,.08-.27,.1,.11,.02,.21,.05,.3,.1,.09,.05,.16,.11,.23,.18,.06,.07,.11,.16,.15,.26,.04,.1,.05,.2,.05,.31,0,.17-.03,.32-.09,.44-.06,.12-.14,.22-.24,.3-.1,.08-.21,.14-.34,.17-.13,.04-.26,.05-.4,.05-.16,0-.3-.02-.43-.07-.13-.04-.23-.11-.32-.19-.09-.09-.16-.19-.21-.31-.05-.12-.08-.26-.08-.41h.35Z"/><path class="cls-1" d="M96.35,8.87h-.35v-2.95c-.08,.09-.18,.17-.3,.25s-.25,.16-.39,.23v-.35c.13-.06,.26-.14,.37-.23,.12-.09,.23-.19,.33-.3h.25s.05,0,.07,.02c.01,.01,.02,.04,.02,.07v3.25Z"/><path class="cls-1" d="M99.45,7.01c-.04,.16-.11,.3-.21,.4s-.22,.15-.37,.15c-.09,0-.16-.01-.23-.04-.07-.03-.13-.07-.21-.13-.08-.07-.15-.12-.2-.15-.06-.04-.12-.05-.18-.05-.09,0-.16,.03-.21,.09-.05,.06-.11,.14-.15,.26l-.2-.12c.04-.15,.11-.27,.21-.37,.1-.1,.22-.15,.36-.15,.09,0,.16,.01,.23,.04,.07,.03,.13,.07,.21,.13,.08,.07,.15,.12,.2,.15,.06,.04,.12,.05,.18,.05,.09,0,.17-.03,.22-.1,.05-.07,.11-.16,.15-.28l.2,.12Z"/><path class="cls-1" d="M100.24,8.06c.03,.19,.11,.33,.23,.43,.12,.1,.27,.15,.45,.15,.09,0,.18-.02,.26-.06,.08-.04,.15-.09,.21-.17,.06-.07,.1-.16,.14-.26,.03-.1,.05-.22,.05-.35,0-.28-.06-.5-.18-.63-.12-.14-.28-.21-.47-.21-.15,0-.28,.04-.39,.11-.11,.08-.18,.18-.22,.32,0,.02-.02,.04-.03,.06,0,.01-.03,.02-.06,.02h-.21s-.04,0-.05-.01c0,0,0-.03,0-.06l.05-1.79s0-.06,.02-.07c0-.01,.03-.02,.05-.02h1.68v.31h-1.41l-.06,1.13c.07-.1,.16-.17,.29-.22,.13-.05,.27-.08,.43-.08,.13,0,.25,.02,.36,.07,.11,.05,.21,.12,.3,.21,.08,.09,.15,.21,.2,.35s.07,.31,.07,.5c0,.17-.02,.32-.07,.46-.05,.14-.12,.26-.21,.36-.09,.1-.2,.18-.32,.24-.13,.06-.27,.08-.42,.08-.14,0-.27-.02-.39-.06-.12-.04-.23-.1-.32-.17-.09-.08-.16-.17-.22-.28s-.09-.24-.09-.38h.35Z"/><path class="cls-1" d="M104.23,8.39c-.08,.17-.19,.3-.33,.41-.14,.11-.32,.16-.54,.16s-.39-.05-.53-.16c-.14-.11-.24-.24-.32-.41s-.13-.36-.15-.57c-.03-.21-.04-.42-.04-.64s.01-.43,.04-.64c.03-.21,.08-.41,.15-.58,.08-.17,.18-.31,.32-.41,.14-.11,.31-.16,.53-.16s.4,.05,.54,.16c.14,.11,.25,.24,.33,.41,.08,.17,.13,.36,.16,.58,.03,.21,.04,.43,.04,.64s-.01,.43-.04,.64-.08,.4-.16,.57Zm-.6,.17c.1-.06,.17-.15,.23-.26,.06-.11,.1-.23,.13-.36,.03-.13,.05-.26,.06-.4,0-.13,.01-.26,.01-.37,0-.13,0-.28-.02-.45-.01-.17-.05-.33-.09-.48s-.12-.28-.21-.39c-.09-.11-.22-.16-.38-.16s-.28,.05-.37,.16c-.09,.11-.16,.23-.2,.39s-.07,.31-.09,.48c-.01,.17-.02,.32-.02,.45,0,.09,0,.18,0,.28,0,.1,.01,.21,.03,.32,.01,.11,.04,.21,.07,.32,.03,.1,.07,.19,.12,.27s.11,.14,.19,.19c.07,.05,.16,.07,.27,.07s.2-.02,.27-.07Z"/><path class="cls-1" d="M104.6,9.47c.27-.36,.46-.73,.59-1.1,.12-.37,.18-.74,.18-1.1s-.06-.73-.18-1.1c-.12-.37-.32-.74-.59-1.1h.27c.14,.15,.27,.32,.38,.49,.11,.18,.2,.36,.28,.55s.14,.38,.18,.58c.04,.2,.06,.39,.06,.57s-.02,.38-.06,.57-.1,.39-.18,.58c-.08,.19-.17,.37-.28,.55-.11,.18-.24,.34-.38,.49h-.27Z"/></g><g><path class="cls-1" d="M126.71,8.11c-.09,.02-.18,.04-.3,.06-.11,.02-.23,.04-.37,.05s-.27,.03-.4,.04c-.13,0-.27,.01-.4,.01h-.7s-.06,0-.07-.02c-.01-.01-.02-.04-.02-.08v-2.74h.35v2.51h.5c.29,0,.56-.02,.81-.05,.24-.04,.44-.07,.6-.11v.32Zm.55,1.22h-.35V5.27h.35v1.5h.57v.34h-.57v2.22Z"/><path class="cls-1" d="M131.62,7.52h-3.59v-.31h3.59v.31Zm-.48,1.66s0,.06-.02,.08-.04,.02-.07,.02h-2.44s-.06,0-.07-.02-.02-.04-.02-.08v-1.12s0-.06,.02-.08,.04-.02,.07-.02h2.44s.06,0,.07,.02,.02,.04,.02,.08v1.12Zm-.01-2.46s0,.06-.02,.08c-.01,.01-.04,.02-.07,.02h-2.41s-.06,0-.07-.02c-.01-.01-.02-.04-.02-.08v-1.4h.33v.44h.82v-.44h.3v.44h.82v-.44h.33v1.4Zm-1.44-.19v-.5h-.83v.5h.83Zm1.1,2.45v-.72h-1.93v.72h1.93Zm.01-2.45v-.5h-.83v.5h.83Z"/><path class="cls-1" d="M132.91,9.47c-.14-.15-.27-.31-.38-.49-.11-.18-.2-.36-.28-.55-.08-.19-.14-.38-.18-.58s-.06-.39-.06-.57,.02-.38,.06-.57c.04-.2,.1-.39,.18-.58s.17-.37,.28-.55c.11-.18,.24-.34,.38-.49h.27c-.27,.36-.46,.73-.59,1.1s-.18,.74-.18,1.1,.06,.73,.18,1.1,.32,.74,.59,1.1h-.27Z"/><path class="cls-1" d="M133.74,8.06c.03,.19,.11,.33,.23,.43,.12,.1,.27,.15,.45,.15,.09,0,.18-.02,.26-.06,.08-.04,.15-.09,.21-.17,.06-.07,.1-.16,.14-.26,.03-.1,.05-.22,.05-.35,0-.28-.06-.5-.18-.63-.12-.14-.28-.21-.47-.21-.15,0-.28,.04-.39,.11-.11,.08-.18,.18-.22,.32,0,.02-.02,.04-.03,.06,0,.01-.03,.02-.06,.02h-.21s-.04,0-.05-.01c0,0,0-.03,0-.06l.05-1.79s0-.06,.02-.07c0-.01,.03-.02,.05-.02h1.68v.31h-1.41l-.06,1.13c.07-.1,.16-.17,.29-.22,.13-.05,.27-.08,.43-.08,.13,0,.25,.02,.36,.07,.11,.05,.21,.12,.3,.21,.08,.09,.15,.21,.2,.35s.07,.31,.07,.5c0,.17-.02,.32-.07,.46-.05,.14-.12,.26-.21,.36-.09,.1-.2,.18-.32,.24-.13,.06-.27,.08-.42,.08-.14,0-.27-.02-.39-.06-.12-.04-.23-.1-.32-.17-.09-.08-.16-.17-.22-.28s-.09-.24-.09-.38h.35Z"/><path class="cls-1" d="M137.15,8.87h-.35v-2.95c-.08,.09-.18,.17-.3,.25s-.25,.16-.39,.23v-.35c.13-.06,.26-.14,.37-.23,.12-.09,.23-.19,.33-.3h.25s.05,0,.07,.02c.01,.01,.02,.04,.02,.07v3.25Z"/><path class="cls-1" d="M140.25,7.01c-.04,.16-.11,.3-.21,.4-.1,.1-.22,.15-.37,.15-.09,0-.16-.01-.23-.04-.07-.03-.13-.07-.21-.13-.08-.07-.15-.12-.2-.15-.06-.04-.12-.05-.18-.05-.09,0-.16,.03-.21,.09-.05,.06-.11,.14-.15,.26l-.2-.12c.04-.15,.11-.27,.21-.37,.1-.1,.22-.15,.36-.15,.09,0,.16,.01,.23,.04,.07,.03,.13,.07,.21,.13,.08,.07,.15,.12,.2,.15,.06,.04,.12,.05,.18,.05,.09,0,.17-.03,.22-.1,.05-.07,.11-.16,.15-.28l.2,.12Z"/><path class="cls-1" d="M141.97,8.87h-.35v-2.95c-.08,.09-.18,.17-.3,.25s-.25,.16-.39,.23v-.35c.13-.06,.26-.14,.37-.23,.12-.09,.23-.19,.33-.3h.25s.05,0,.07,.02c.01,.01,.02,.04,.02,.07v3.25Z"/><path class="cls-1" d="M145.04,8.39c-.08,.17-.19,.3-.33,.41-.14,.11-.32,.16-.54,.16s-.39-.05-.53-.16c-.14-.11-.24-.24-.32-.41s-.13-.36-.15-.57c-.03-.21-.04-.42-.04-.64s.01-.43,.04-.64c.03-.21,.08-.41,.15-.58,.08-.17,.18-.31,.32-.41,.14-.11,.31-.16,.53-.16s.4,.05,.54,.16c.14,.11,.25,.24,.33,.41,.08,.17,.13,.36,.16,.58,.03,.21,.04,.43,.04,.64s-.01,.43-.04,.64c-.03,.21-.08,.4-.16,.57Zm-.6,.17c.1-.06,.17-.15,.23-.26,.06-.11,.1-.23,.13-.36,.03-.13,.05-.26,.06-.4,0-.13,.01-.26,.01-.37,0-.13,0-.28-.02-.45-.01-.17-.05-.33-.09-.48s-.12-.28-.21-.39c-.09-.11-.22-.16-.38-.16s-.28,.05-.37,.16c-.09,.11-.16,.23-.2,.39s-.07,.31-.09,.48c-.01,.17-.02,.32-.02,.45,0,.09,0,.18,0,.28,0,.1,.01,.21,.03,.32,.01,.11,.04,.21,.07,.32,.03,.1,.07,.19,.12,.27,.05,.08,.11,.14,.19,.19,.07,.05,.16,.07,.27,.07s.2-.02,.27-.07Z"/><path class="cls-1" d="M147.52,8.39c-.08,.17-.19,.3-.33,.41-.14,.11-.32,.16-.54,.16s-.39-.05-.53-.16c-.14-.11-.24-.24-.32-.41s-.13-.36-.15-.57c-.03-.21-.04-.42-.04-.64s.01-.43,.04-.64c.03-.21,.08-.41,.15-.58,.08-.17,.18-.31,.32-.41,.14-.11,.31-.16,.53-.16s.4,.05,.54,.16c.14,.11,.25,.24,.33,.41,.08,.17,.13,.36,.16,.58,.03,.21,.04,.43,.04,.64s-.01,.43-.04,.64c-.03,.21-.08,.4-.16,.57Zm-.6,.17c.1-.06,.17-.15,.23-.26,.06-.11,.1-.23,.13-.36,.03-.13,.05-.26,.06-.4,0-.13,.01-.26,.01-.37,0-.13,0-.28-.02-.45-.01-.17-.05-.33-.09-.48s-.12-.28-.21-.39c-.09-.11-.22-.16-.38-.16s-.28,.05-.37,.16c-.09,.11-.16,.23-.2,.39s-.07,.31-.09,.48c-.01,.17-.02,.32-.02,.45,0,.09,0,.18,0,.28,0,.1,.01,.21,.03,.32,.01,.11,.04,.21,.07,.32,.03,.1,.07,.19,.12,.27,.05,.08,.11,.14,.19,.19,.07,.05,.16,.07,.27,.07s.2-.02,.27-.07Z"/><path class="cls-1" d="M147.89,9.47c.27-.36,.46-.73,.59-1.1s.18-.74,.18-1.1-.06-.73-.18-1.1-.32-.74-.59-1.1h.27c.14,.15,.27,.32,.38,.49,.11,.18,.2,.36,.28,.55s.14,.38,.18,.58c.04,.2,.06,.39,.06,.57s-.02,.38-.06,.57c-.04,.2-.1,.39-.18,.58-.08,.19-.17,.37-.28,.55-.11,.18-.24,.34-.38,.49h-.27Z"/></g><g><path class="cls-1" d="M169.77,8.19s0,.06-.02,.08c-.01,.01-.04,.02-.07,.02h-1.22s-.06,0-.07-.02c-.01-.01-.02-.04-.02-.08v-2.56s0-.06,.02-.08c.01-.01,.04-.02,.07-.02h1.22s.06,0,.07,.02c.01,.01,.02,.04,.02,.08v2.56Zm-.33-.22v-2.13h-.73v2.13h.73Zm1.95,1.35h-.34v-2.32h-.51v2.13h-.34v-3.79h.34v1.32h.51v-1.39h.34v4.06Z"/><path class="cls-1" d="M175.52,7.9h-1.61v1.43h-.36v-1.43h-1.62v-.31h3.58v.31Zm-3.19-1.63c0-.28,.12-.51,.37-.69,.24-.18,.58-.27,1.02-.27,.22,0,.41,.02,.58,.07,.17,.04,.32,.11,.44,.19,.12,.08,.21,.18,.27,.3,.06,.12,.09,.25,.09,.4,0,.28-.12,.51-.37,.69-.24,.17-.59,.26-1.02,.26-.22,0-.41-.02-.58-.07-.17-.04-.32-.11-.44-.19-.25-.17-.37-.4-.37-.69Zm2.41,0c0-.21-.1-.37-.29-.48-.19-.11-.43-.17-.73-.17-.15,0-.29,.01-.42,.04-.13,.03-.23,.07-.32,.13s-.16,.12-.21,.2c-.05,.08-.07,.17-.07,.28s.03,.2,.08,.27c.05,.08,.12,.15,.21,.2s.2,.1,.33,.12c.13,.03,.26,.04,.4,.04,.29,0,.53-.05,.72-.16,.19-.11,.29-.27,.29-.48Z"/><path class="cls-1" d="M178.33,8.11c-.09,.02-.18,.04-.3,.06-.11,.02-.23,.04-.37,.05-.13,.02-.27,.03-.4,.04-.13,0-.27,.01-.4,.01h-.7s-.06,0-.07-.02c-.01-.01-.02-.04-.02-.08v-2.74h.35v2.51h.49c.29,0,.56-.02,.81-.05,.24-.04,.44-.07,.6-.11v.32Zm.55,1.22h-.35V5.27h.35v1.5h.57v.34h-.57v2.22Z"/><path class="cls-1" d="M183.23,7.52h-3.59v-.31h3.59v.31Zm-.48,1.66s0,.06-.02,.08c-.01,.01-.04,.02-.07,.02h-2.44s-.06,0-.07-.02c-.01-.01-.02-.04-.02-.08v-1.12s0-.06,.02-.08c.01-.01,.04-.02,.07-.02h2.44s.06,0,.07,.02c.01,.01,.02,.04,.02,.08v1.12Zm-.01-2.46s0,.06-.02,.08c-.01,.01-.04,.02-.07,.02h-2.41s-.06,0-.07-.02c-.01-.01-.02-.04-.02-.08v-1.4h.33v.44h.82v-.44h.3v.44h.82v-.44h.33v1.4Zm-1.45-.19v-.5h-.83v.5h.83Zm1.1,2.45v-.72h-1.93v.72h1.93Zm.01-2.45v-.5h-.83v.5h.83Z"/><path class="cls-1" d="M184.52,9.47c-.14-.15-.27-.31-.38-.49-.11-.18-.2-.36-.28-.55-.08-.19-.14-.38-.18-.58-.04-.2-.06-.39-.06-.57s.02-.38,.06-.57c.04-.2,.1-.39,.18-.58,.08-.19,.17-.37,.28-.55s.24-.34,.38-.49h.27c-.27,.36-.46,.73-.59,1.1-.12,.37-.18,.74-.18,1.1s.06,.73,.18,1.1c.12,.37,.32,.74,.59,1.1h-.27Z"/><path class="cls-1" d="M186.27,8.87h-.35v-2.95c-.08,.09-.18,.17-.3,.25s-.25,.16-.39,.23v-.35c.13-.06,.26-.14,.37-.23,.12-.09,.23-.19,.33-.3h.25s.05,0,.07,.02c.01,.01,.02,.04,.02,.07v3.25Z"/><path class="cls-1" d="M189.34,8.39c-.08,.17-.19,.3-.33,.41-.14,.11-.32,.16-.54,.16s-.39-.05-.53-.16c-.14-.11-.24-.24-.32-.41s-.13-.36-.15-.57c-.03-.21-.04-.42-.04-.64s.01-.43,.04-.64c.03-.21,.08-.41,.15-.58,.08-.17,.18-.31,.32-.41,.14-.11,.31-.16,.53-.16s.4,.05,.54,.16c.14,.11,.25,.24,.33,.41,.08,.17,.13,.36,.16,.58,.03,.21,.04,.43,.04,.64s-.01,.43-.04,.64c-.03,.21-.08,.4-.16,.57Zm-.6,.17c.1-.06,.17-.15,.23-.26,.06-.11,.1-.23,.13-.36,.03-.13,.05-.26,.06-.4,0-.13,.01-.26,.01-.37,0-.13,0-.28-.02-.45-.01-.17-.05-.33-.09-.48s-.12-.28-.21-.39c-.09-.11-.22-.16-.38-.16s-.28,.05-.37,.16c-.09,.11-.16,.23-.2,.39s-.07,.31-.09,.48c-.01,.17-.02,.32-.02,.45,0,.09,0,.18,0,.28,0,.1,.01,.21,.03,.32,.01,.11,.04,.21,.07,.32,.03,.1,.07,.19,.12,.27,.05,.08,.11,.14,.19,.19,.07,.05,.16,.07,.27,.07s.2-.02,.27-.07Z"/><path class="cls-1" d="M191.25,8.87h-.35v-2.95c-.08,.09-.18,.17-.3,.25s-.25,.16-.39,.23v-.35c.13-.06,.26-.14,.37-.23,.12-.09,.23-.19,.33-.3h.25s.05,0,.07,.02c.01,.01,.02,.04,.02,.07v3.25Z"/><path class="cls-1" d="M194.35,7.01c-.04,.16-.11,.3-.21,.4-.1,.1-.22,.15-.37,.15-.09,0-.16-.01-.23-.04-.07-.03-.13-.07-.21-.13-.08-.07-.15-.12-.2-.15-.06-.04-.12-.05-.18-.05-.09,0-.16,.03-.21,.09-.05,.06-.11,.14-.15,.26l-.2-.12c.04-.15,.11-.27,.21-.37,.1-.1,.22-.15,.36-.15,.09,0,.16,.01,.23,.04,.07,.03,.13,.07,.21,.13,.08,.07,.15,.12,.2,.15,.06,.04,.12,.05,.18,.05,.09,0,.17-.03,.22-.1,.05-.07,.11-.16,.15-.28l.2,.12Z"/><path class="cls-1" d="M194.52,9.47c.27-.36,.46-.73,.59-1.1s.18-.74,.18-1.1-.06-.73-.18-1.1-.32-.74-.59-1.1h.27c.14,.15,.27,.32,.38,.49,.11,.18,.2,.36,.28,.55s.14,.38,.18,.58c.04,.2,.06,.39,.06,.57s-.02,.38-.06,.57c-.04,.2-.1,.39-.18,.58-.08,.19-.17,.37-.28,.55-.11,.18-.24,.34-.38,.49h-.27Z"/></g><g><path class="cls-1" d="M3.51,6.58c0,.06-.01,.1-.04,.13s-.07,.03-.12,.03H1.25c-.06,0-.1-.01-.12-.03s-.03-.06-.03-.12V3.35c0-.06,.01-.1,.03-.12,.02-.02,.06-.04,.13-.04H3.35c.11,0,.16,.05,.16,.16v3.23Zm-.64-.38V3.73H1.73v2.47h1.14Zm2.12,1.8h-.64V2.89h.64V8Z"/><path class="cls-1" d="M7.81,6.89c-.19-.16-.37-.35-.52-.56-.15-.21-.26-.43-.33-.64-.03,.11-.07,.23-.13,.35s-.13,.24-.21,.35c-.08,.12-.18,.23-.27,.34-.1,.11-.2,.21-.3,.29l-.55-.39c.21-.15,.39-.31,.53-.5,.14-.18,.26-.38,.35-.59,.09-.21,.15-.44,.19-.68,.04-.24,.06-.49,.06-.76v-1.02h.68v1.06c0,.54,.07,1,.23,1.38s.41,.7,.77,.96l-.5,.41Zm1.32,.87h-.63v-2.79h-.79v-.6h.79v-1.39h.63V7.76Zm1,.24h-.62V2.89h.62V8Z"/><path class="cls-1" d="M14.97,6.58h-.65v-1.99h-.92v.87c0,.06-.01,.1-.04,.13-.02,.02-.07,.03-.12,.03h-2.08c-.06,0-.1-.01-.12-.03s-.03-.06-.03-.12V3.25c0-.06,.01-.1,.03-.12,.02-.02,.06-.04,.13-.04h2.08c.11,0,.16,.05,.16,.16v.78h.92v-1.15h.65v3.69Zm.1,1.32h-3.39c-.06,0-.1-.01-.12-.03-.02-.02-.03-.06-.03-.13v-1.58h.65v1.19h2.89v.55Zm-2.31-2.82v-1.44h-1.14v1.44h1.14Z"/><path class="cls-1" d="M18.53,6.92c-.27-.18-.52-.38-.73-.61-.21-.23-.37-.47-.46-.72-.1,.27-.26,.53-.49,.79-.12,.13-.24,.26-.36,.37-.12,.11-.24,.21-.36,.3l-.53-.43c.21-.13,.4-.27,.57-.43,.17-.16,.32-.35,.44-.55s.21-.43,.28-.68c.07-.25,.1-.52,.1-.81v-.42h-1.03v-.54h2.76v.54h-1.04v.45c0,.51,.1,.95,.31,1.34s.54,.71,1,.97l-.46,.44Zm1.5,1.08h-.65V2.89h.65V8Z"/><path class="cls-1" d="M26.58,5.84h-.64v-1.35h-.91v.91c0,.06-.01,.1-.04,.13-.02,.02-.07,.03-.12,.03h-2.1c-.06,0-.1-.01-.12-.03-.02-.02-.03-.06-.03-.13V3.04h.64v.74h1.14v-.74h.64v.9h.91v-1.05h.64v2.95Zm0,1.94c0,.06-.01,.1-.04,.13-.02,.02-.07,.03-.12,.03h-3.11c-.06,0-.1-.01-.13-.03s-.03-.06-.03-.13v-1.58c0-.06,.01-.1,.03-.12,.02-.02,.06-.04,.13-.04h3.11c.11,0,.16,.05,.16,.16v1.58Zm-2.19-2.75v-.7h-1.14v.7h1.14Zm1.55,2.39v-.84h-2.15v.84h2.15Z"/><path class="cls-1" d="M29.79,6.66c-.06,0-.13,.02-.22,.03s-.19,.03-.3,.04c-.11,.01-.23,.02-.37,.03s-.27,.01-.42,.01h-.74c-.06,0-.1,0-.13-.03-.02-.02-.03-.06-.03-.13v-1.76c0-.06,.01-.1,.03-.12,.02-.02,.06-.04,.13-.04h.89v-1h-1.05v-.55h1.53c.11,0,.16,.05,.16,.16v1.76c0,.06-.01,.1-.04,.13-.02,.02-.07,.03-.12,.03h-.9v.99h.5c.08,0,.18,0,.27-.01s.2-.01,.29-.03c.2-.02,.37-.04,.5-.07v.54Zm.86,1.1h-.63v-2.09h-.61v-.57h.61v-.7h-.61v-.56h.61v-.86h.63V7.76Zm.99,.23h-.63V2.89h.63V7.99Z"/></g><rect class="cls-2" x="41.85" y=".05" width="154.05" height="3.82" rx="1.91" ry="1.91"/></svg>