<?xml version="1.0" encoding="UTF-8"?><svg id="Layer_1" xmlns="http://www.w3.org/2000/svg" viewBox="0 0 70.41 69.96"><defs><style>.cls-1{fill:#f83b37;}.cls-2{fill:#fff;}.cls-3{fill:none;stroke:#f3f3f3;stroke-linecap:round;stroke-linejoin:round;stroke-width:4px;}</style></defs><g><rect class="cls-1" x="2" y="2.2" width="66.41" height="65.96" rx="4.84" ry="4.84"/><path class="cls-2" d="M63.58,4.2c1.56,0,2.84,1.27,2.84,2.84V63.32c0,1.56-1.27,2.84-2.84,2.84H6.84c-1.56,0-2.84-1.27-2.84-2.84V7.04c0-1.56,1.27-2.84,2.84-2.84H63.58m0-4H6.84C3.08,.2,0,3.28,0,7.04V63.32C0,67.08,3.08,70.16,6.84,70.16H63.58c3.76,0,6.84-3.08,6.84-6.84V7.04c0-3.76-3.08-6.84-6.84-6.84h0Z"/></g><path class="cls-3" d="M16.13,55.38c0-10.54,8.54-19.08,19.08-19.08s19.08,8.54,19.08,19.08"/><circle class="cls-2" cx="22.56" cy="23.92" r="4.22"/><circle class="cls-2" cx="48.53" cy="23.92" r="4.22"/></svg>