<?xml version="1.0" encoding="UTF-8"?><svg id="Layer_1" xmlns="http://www.w3.org/2000/svg" viewBox="0 0 70.41 69.96"><defs><style>.cls-1{fill:#fff;}.cls-2{fill:#fbae14;}.cls-3{fill:#f3f3f3;}</style></defs><g><rect class="cls-2" x="2" y="2" width="66.36" height="65.96" rx="4.84" ry="4.84"/><path class="cls-1" d="M63.53,4c1.56,0,2.84,1.27,2.84,2.84V63.12c0,1.56-1.27,2.84-2.84,2.84H6.84c-1.56,0-2.84-1.27-2.84-2.84V6.84c0-1.56,1.27-2.84,2.84-2.84H63.53M63.53,0H6.84C3.08,0,0,3.08,0,6.84V63.12C0,66.88,3.08,69.96,6.84,69.96H63.53c3.76,0,6.84-3.08,6.84-6.84V6.84C70.36,3.08,67.29,0,63.53,0h0Z"/></g><rect class="cls-3" x="14.3" y="47.3" width="41.79" height="3.87" rx="1.82" ry="1.82"/><circle class="cls-1" cx="22.45" cy="23.92" r="4.22"/><circle class="cls-1" cx="48.42" cy="23.92" r="4.22"/></svg>