<?xml version="1.0" encoding="UTF-8"?><svg id="Layer_1" xmlns="http://www.w3.org/2000/svg" viewBox="0 0 70.41 69.96"><defs><style>.cls-1{fill:#fff;}.cls-2{stroke:#f3f3f3;}.cls-2,.cls-3{fill:none;stroke-linecap:round;stroke-linejoin:round;stroke-width:4px;}.cls-4{fill:#39bce6;}.cls-3{stroke:#fff;}</style></defs><g><rect class="cls-4" x="2" y="2" width="66.41" height="65.96" rx="4.84" ry="4.84"/><path class="cls-1" d="M63.58,4c1.56,0,2.84,1.27,2.84,2.84V63.12c0,1.56-1.27,2.84-2.84,2.84H6.84c-1.56,0-2.84-1.27-2.84-2.84V6.84c0-1.56,1.27-2.84,2.84-2.84H63.58M63.58,0H6.84C3.08,0,0,3.08,0,6.84V63.12C0,66.88,3.08,69.96,6.84,69.96H63.58c3.76,0,6.84-3.08,6.84-6.84V6.84C70.41,3.08,67.34,0,63.58,0h0Z"/></g><path class="cls-2" d="M54.29,36.3c0,10.54-8.54,19.08-19.08,19.08s-19.08-8.54-19.08-19.08"/><path class="cls-3" d="M16.62,23.88c0-2.38,1.93-4.31,4.31-4.31s4.31,1.93,4.31,4.31"/><path class="cls-3" d="M45.67,23.88c0-2.38,1.93-4.31,4.31-4.31s4.31,1.93,4.31,4.31"/></svg>