<?xml version="1.0" encoding="UTF-8"?><svg id="Layer_1" xmlns="http://www.w3.org/2000/svg" viewBox="0 0 160 170"><defs><style>.cls-1,.cls-2{fill:#8f9392;}.cls-2{font-family:KoPubWorldDotumMedium, KoPubWorldDotum;font-size:12px;}</style></defs><g><g><path class="cls-1" d="M64.25,64.62h-3.75l-1.35-7.63h-.04l-1.32,7.63h-3.77l-3.4-12.53h3.79l1.31,6.38,1.27-6.38h4.4l1.23,6.49,1.34-6.49h3.81l-3.51,12.53Z"/><path class="cls-1" d="M68.57,52.1h10.37v3.21h-6.51v1.56h5.91v2.98h-5.91v1.56h6.7v3.21h-10.56v-12.53Z"/><path class="cls-1" d="M84.44,52.1h3.77l4.56,12.53h-4l-.53-1.79h-3.98l-.56,1.79h-3.88l4.61-12.53Zm3.03,8.05l-1.12-3.86h-.04l-1.21,3.86h2.37Z"/><path class="cls-1" d="M94.36,55.31h-3.51v-3.21h10.88v3.21h-3.51v9.32h-3.86v-9.32Z"/><path class="cls-1" d="M102.76,52.1h3.86v4.35h3.61v-4.35h3.86v12.53h-3.86v-4.96h-3.61v4.96h-3.86v-12.53Z"/><path class="cls-1" d="M115.84,52.1h10.37v3.21h-6.51v1.56h5.91v2.98h-5.91v1.56h6.7v3.21h-10.56v-12.53Z"/><path class="cls-1" d="M127.68,52.1h7.35c2.19,0,4.09,1.21,4.09,3.58,0,1.3-.6,2.67-1.88,3.14,1.05,.4,1.7,1.56,1.84,3.12,.05,.61,.07,2.11,.42,2.68h-3.86c-.19-.63-.26-1.28-.32-1.93-.1-1.19-.21-2.44-1.74-2.44h-2.05v4.37h-3.86v-12.53Zm3.86,5.47h2.02c.72,0,1.7-.12,1.7-1.25,0-.79-.44-1.24-1.91-1.24h-1.81v2.49Z"/></g><polygon class="cls-1" points="32.85 52.1 28.13 52.1 24.36 55.8 24.36 52.1 20.5 52.1 20.5 64.62 24.36 64.62 24.36 60.92 28.13 64.62 32.85 64.62 26.47 58.36 32.85 52.1"/><g><path class="cls-1" d="M48.88,59.8c-1.16-.33-2.37-.5-3.59-.5-1.48,0-2.93,.25-4.32,.73-1.27,.44-2.6,.67-3.95,.67-1.09,0-2.17-.15-3.21-.44l-.36,1.03c.51,.15,1.02,.26,1.54,.34v1.02l6.18,3.86,6.18-3.86v-2.08c.4,.07,.79,.16,1.18,.27l.36-1.03Zm-3.11,1.98l-4.61,2.88-4.6-2.87c.15,0,.3,0,.46,0,1.48,0,2.93-.25,4.31-.73,1.27-.45,2.6-.67,3.96-.67,.16,0,.32,0,.48,.01v1.38Z"/><path class="cls-1" d="M47.34,55.1v-1.02l-6.18-3.86-6.18,3.86v2.09c-.4-.07-.79-.16-1.18-.26l-.36,1.03c1.16,.33,2.36,.5,3.58,.5,1.48,0,2.93-.25,4.31-.73,1.27-.45,2.6-.67,3.96-.67,1.1,0,2.18,.15,3.23,.44l.36-1.03c-.51-.15-1.02-.26-1.54-.34Zm-6.37,.57c-1.27,.44-2.6,.67-3.95,.67-.16,0-.31,0-.47,0v-1.38l4.61-2.88,4.6,2.87c-.16,0-.31,0-.47,0-1.48,0-2.93,.25-4.32,.73Z"/><path class="cls-1" d="M45.29,57.12c-1.48,0-2.93,.25-4.32,.73-1.27,.44-2.6,.67-3.95,.67s-2.65-.22-3.91-.65l-.36,1.03c1.37,.47,2.81,.72,4.27,.72s2.93-.25,4.31-.73c1.27-.45,2.6-.67,3.96-.67s2.66,.22,3.92,.66l.36-1.03c-1.37-.48-2.82-.72-4.29-.72Z"/></g></g><text class="cls-2" transform="translate(46.87 88.85)"><tspan x="0" y="0">해당 관측소는</tspan><tspan x="-10.46" y="17">이미지가 제공되지</tspan><tspan x="10.52" y="34">않습니다.</tspan></text></svg>