<svg width="16" height="16" viewBox="0 0 16 16" fill="none" xmlns="http://www.w3.org/2000/svg">
<path d="M2.66667 6.66683C2.48986 6.66683 2.32029 6.59659 2.19526 6.47157C2.07024 6.34654 2 6.17697 2 6.00016C2 5.82335 2.07024 5.65378 2.19526 5.52876C2.32029 5.40373 2.48986 5.3335 2.66667 5.3335H8C8.35362 5.3335 8.69276 5.19302 8.94281 4.94297C9.19286 4.69292 9.33333 4.35378 9.33333 4.00016C9.33333 3.64654 9.19286 3.3074 8.94281 3.05735C8.69276 2.80731 8.35362 2.66683 8 2.66683C7.63333 2.66683 7.3 2.8135 7.06 3.06016C6.99933 3.12491 6.92602 3.17652 6.8446 3.21181C6.76319 3.24709 6.6754 3.26529 6.58667 3.26529C6.49793 3.26529 6.41015 3.24709 6.32873 3.21181C6.24732 3.17652 6.17401 3.12491 6.11333 3.06016C5.85333 2.80016 5.85333 2.3735 6.11333 2.1135C6.6 1.6335 7.26667 1.3335 8 1.3335C8.70724 1.3335 9.38552 1.61445 9.88562 2.11454C10.3857 2.61464 10.6667 3.29292 10.6667 4.00016C10.6667 4.70741 10.3857 5.38568 9.88562 5.88578C9.38552 6.38588 8.70724 6.66683 8 6.66683H2.66667ZM12.6667 8.00016C12.8435 8.00016 13.013 7.92992 13.1381 7.8049C13.2631 7.67988 13.3333 7.51031 13.3333 7.3335C13.3333 7.15669 13.2631 6.98712 13.1381 6.86209C13.013 6.73707 12.8435 6.66683 12.6667 6.66683C12.48 6.66683 12.3133 6.74016 12.1933 6.86016C12.1317 6.92197 12.0584 6.971 11.9778 7.00445C11.8971 7.03791 11.8106 7.05513 11.7233 7.05513C11.636 7.05513 11.5496 7.03791 11.4689 7.00445C11.3883 6.971 11.315 6.92197 11.2533 6.86016C11 6.60016 11 6.18016 11.2533 5.92016C11.6133 5.56016 12.1133 5.3335 12.6667 5.3335C13.1971 5.3335 13.7058 5.54421 14.0809 5.91928C14.456 6.29436 14.6667 6.80306 14.6667 7.3335C14.6667 7.86393 14.456 8.37264 14.0809 8.74771C13.7058 9.12278 13.1971 9.3335 12.6667 9.3335H3.33333C3.15652 9.3335 2.98695 9.26326 2.86193 9.13823C2.7369 9.01321 2.66667 8.84364 2.66667 8.66683C2.66667 8.49002 2.7369 8.32045 2.86193 8.19543C2.98695 8.0704 3.15652 8.00016 3.33333 8.00016H12.6667ZM12 12.0002H2.66667C2.48986 12.0002 2.32029 11.9299 2.19526 11.8049C2.07024 11.6799 2 11.5103 2 11.3335C2 11.1567 2.07024 10.9871 2.19526 10.8621C2.32029 10.7371 2.48986 10.6668 2.66667 10.6668H12C12.5304 10.6668 13.0391 10.8775 13.4142 11.2526C13.7893 11.6277 14 12.1364 14 12.6668C14 13.1973 13.7893 13.706 13.4142 14.081C13.0391 14.4561 12.5304 14.6668 12 14.6668C11.4467 14.6668 10.9467 14.4402 10.5867 14.0802C10.3333 13.8202 10.3333 13.4002 10.5867 13.1402C10.6483 13.0784 10.7216 13.0293 10.8023 12.9959C10.8829 12.9624 10.9694 12.9452 11.0567 12.9452C11.144 12.9452 11.2304 12.9624 11.3111 12.9959C11.3917 13.0293 11.465 13.0784 11.5267 13.1402C11.6467 13.2602 11.8133 13.3335 12 13.3335C12.1768 13.3335 12.3464 13.2633 12.4714 13.1382C12.5964 13.0132 12.6667 12.8436 12.6667 12.6668C12.6667 12.49 12.5964 12.3204 12.4714 12.1954C12.3464 12.0704 12.1768 12.0002 12 12.0002Z" fill="#111111"/>
</svg>
